<svg version="1.1" xmlns="http://www.w3.org/2000/svg" viewBox="0 0 760 440">
  <!-- svg-source:excalidraw -->
  <defs>
    <style>
      @font-face {
        font-family: "Virgil";
        src: url("https://excalidraw.com/FG_Virgil.woff2");
      }
      @font-face {
        font-family: "Cascadia";
        src: url("https://excalidraw.com/Cascadia.woff2");
      }
    </style>
  </defs>
  <g transform="translate(10 50) rotate(0 50 190)"><path d="M0 0 C0 0, 0 0, 0 0 M0 0 C0 0, 0 0, 0 0 M-0.0477654657931873 6.293338984300487 C0.9771720594892667 5.70637168847009, 1.8634471564951203 3.103576680609975, 4.463190315248913 -0.40093818047668395 M-0.4754900484951088 6.000007379849546 C0.696085446286826 5.071087022536625, 2.3315604189646315 3.1202014494415, 5.2881534490310615 0.5944926176068597 M-0.048369397865642316 11.74097422105032 C3.3953289892137004 9.803130665888816, 3.7379788697927445 7.448587378463387, 9.494400928866995 1.5258482362225414 M0.6355996095668184 11.60893199336487 C3.986879017058114 7.3773084850714605, 7.509566660139081 3.597183201361968, 11.01283319885744 0.16995294495371605 M-0.30994937480895324 18.594045477826768 C6.427564557706098 14.036363378074656, 10.932870996495973 5.261807548927511, 16.508935410066922 1.8591446771216562 M-0.48829787322788043 17.53367829779225 C6.05341935791875 11.389969730825415, 11.39042690678967 5.187964279016654, 15.828177632301529 1.0004541638237407 M-0.8343441000022676 23.33630597749269 C3.1198183504198695 20.58262895661383, 11.092117142765584 12.909249259286634, 21.46977973198321 1.534664356538606 M1.2353678068331693 24.399760830863475 C8.792721653313803 15.258402123818314, 17.016385579279515 5.2270521821566405, 20.532792732396985 0.2352073298930648 M0.3870385410775796 31.87791183008646 C6.158038052335628 22.067471691072377, 16.726282159463445 12.950083346826759, 25.377451224860163 0.884651459195906 M0.30130552784999765 31.45963032147681 C5.7160765643685485 23.66149718529594, 11.788254888460886 17.48030748554634, 26.007475283604474 0.7759911058482469 M0.3880651946085969 36.615642713197815 C5.534487454715254 29.374718858245604, 13.997826349287825 18.042345231209957, 32.027344313866294 0.6332073324605112 M-0.6778216772806367 37.19044974800323 C11.859437963008215 24.19909861925302, 23.021253656484152 12.289322968648253, 31.49946297281126 -0.727006735162508 M1.0893212567687982 40.74705955441647 C12.14590413759132 29.036367590123067, 21.911409541195553 16.703069492109513, 38.352336058208095 -1.5509471054095307 M0.2485398493380302 43.38774146381371 C8.283947682926634 31.85977533859952, 17.25720320581499 21.391225176483175, 36.53214799594258 0.15109927590009775 M-0.7950662132353372 50.65963327200048 C13.559246317477696 32.75584025505185, 29.47967882921074 16.82982421374058, 43.54625838305407 1.032851992952729 M-0.5368426963687725 49.367015937947556 C14.72536092665494 31.380221373557667, 30.063450139994305 14.23436124633082, 43.21604928988569 -0.4902843378157371 M-1.2900152902352957 52.772777713316785 C11.789187953581697 40.74533344709282, 28.55093855869289 24.326287897932882, 47.69042584761071 0.27988804580533966 M-0.564075377513781 54.61830469355296 C14.230340823811844 37.072021092370704, 29.194415651741043 20.824405720609995, 48.06284030056584 1.097946642729287 M1.4670385849754126 61.70052629662345 C17.830700530377737 38.344330708737516, 40.08319243869092 18.213757168829467, 52.87710787704653 1.367387400515259 M0.5378902518282445 60.781336949669225 C12.562356651255097 47.03358909285957, 24.659101408218962 33.055313892576876, 52.296321214870275 0.21441749068337757 M-0.3064441914252072 69.0935649495102 C14.914162311191678 50.97998839807814, 31.836312569931437 32.80275235791363, 57.836056530568015 -1.0828040246594703 M0.696170349554059 68.30007255966733 C13.540362018091903 51.68746254647874, 28.31288469288669 34.564278173204826, 57.66644672872425 -0.3175488249141729 M1.86871552674085 72.02836084956674 C21.686266929262548 47.91838651082866, 41.640077267803136 24.3219331770202, 63.057978733343674 1.0831026176481018 M0.48827169856041763 72.62433075191824 C23.845403983525816 47.13163637187702, 44.97434476411408 21.72619915158875, 64.76029827901502 -0.250108280915164 M-1.359761451319926 81.39629116505114 C19.147109499426094 58.516782872555936, 34.89568680839993 39.64831302545478, 69.42106404458 1.7135157456960215 M0.23641461977256029 78.41141887046126 C24.193058290960007 51.67347156619884, 48.759339277140036 23.557909933189954, 68.81611181166782 0.06428084171970028 M-0.7081994504390252 86.74567599333034 C28.488605814187874 52.43079550211209, 58.122897024078135 20.820054528057256, 75.31445688944551 0.43878670685126053 M-0.33755382492225294 84.18066531344459 C24.00081876156236 58.93242296856935, 46.929757831130566 30.048637243763267, 74.03425001356992 -0.4273186838613583 M-1.6304401614099575 92.4444550026624 C26.07598673501288 59.4858292630627, 56.19972406685085 27.542542153150706, 79.26478432714669 -1.1661135806281635 M-0.29813206459878216 92.28859617490754 C23.52642672042542 65.09238872169581, 44.326593511892646 40.68213064510149, 79.39123008064655 0.4968536113809279 M0.14957056194528207 98.52222037063703 C28.057488361721113 64.43020070914429, 61.83962769158103 27.515571437607804, 85.05962828285203 0.5057287306247247 M0.15874918363972768 97.58346818322107 C28.262176451011932 63.70843568998983, 56.26888279531126 30.55771472474838, 84.95069594978497 0.23307925059478407 M0.5446056158046986 105.05934552484396 C25.32987657784076 76.11933870238522, 51.0690684062152 44.847680648342454, 88.37405331576804 -0.7441529411320431 M0.8000498276900316 103.60689744175616 C32.64608194917423 65.66180536314522, 63.59835621362929 30.22455989533084, 89.67744606691042 -0.6726625471805079 M1.010979559374782 108.57611388354124 C31.19095530569157 77.25647144023804, 59.414003448075036 42.56634528739599, 93.89407885106326 -0.8322822485314987 M0.4499433134773696 110.7954881695521 C21.400427422611415 83.93235578892899, 44.17983578572091 57.456151700261024, 95.7484056189102 -0.6248715087967298 M1.0159618178240422 114.87475179409584 C36.20068718531171 72.80202474892772, 75.00061438669614 27.668686882032006, 101.9432069479441 -1.2305632733156031 M0.6447298278890017 115.13536563975713 C25.24887703721953 88.19941406159269, 47.677519501339845 61.92607081596486, 100.36665430170947 0.9966503347854072 M0.6643044503589692 123.20210517476579 C36.37745112535798 81.1203984620652, 69.43494916612246 42.57989499113933, 99.70136327066459 5.913429053887548 M-0.5531359331498322 122.1373528214105 C25.465700104504965 94.8614664532874, 49.21388319699878 66.37177698303273, 100.167867291281 6.529008228719057 M1.1656553531575682 127.0916724531408 C23.526628330506686 101.2457020879517, 51.34709552272427 71.90806369686987, 98.20107766833623 12.80725734910827 M-0.9001315617423771 127.4915033178832 C27.14632076069404 97.5805262840912, 53.84587945222496 66.338773446695, 99.40399582345505 12.869523089815786 M-1.2586188276021488 134.75273330681063 C21.319338359744883 109.55271061024229, 41.16261362604401 86.42344884203544, 101.76918553713705 18.742232539936303 M1.1226559750081293 133.26873010754622 C38.580502493205415 90.17222354059638, 77.4965533336105 45.87940016676477, 100.5724685561284 18.016842271446585 M-1.4686097827137132 141.45947740403332 C32.341943444175286 100.36808030204736, 66.10216987411921 60.9300005754924, 98.52606393627354 25.19957554462969 M-0.5961467519730945 140.12243428443887 C35.09578276801833 102.52137607923228, 69.12314689013974 63.10965135092431, 100.10292768522629 23.989601242650743 M-0.9384543370085936 146.3930373421758 C33.69329415322028 108.73684567019174, 62.217623288384694 74.0454521473548, 100.8530447909142 28.69245021055537 M-0.14328643079876713 145.9430379967093 C32.540957542259086 109.64449662617369, 65.8748523677415 71.61692087145418, 100.01214214763596 31.480956526576456 M-1.1298066812803 152.80416528949615 C35.17846071447285 113.7943580078355, 67.62784785909811 71.83394507403472, 100.01894266026554 36.92863995597142 M0.23314475945635138 151.83316108839688 C21.41954319987049 126.82584871912577, 42.2972925500485 104.69420186237352, 99.71803538928268 37.83376234226304 M0.9755748306491512 156.85526592358406 C22.84563902694378 132.8377436893164, 44.26826042595698 104.17341874848908, 98.64746794050555 41.652580708467525 M-0.22137764831100526 158.7621540378725 C31.13561580227159 122.6874943359434, 60.252628711022865 88.75537276488, 99.69459856806318 43.695103543081444 M-1.2173494050422136 164.00952517202927 C35.222531863938464 120.92429482165684, 73.16929290654997 80.61468770414614, 100.62404977781222 47.03448964563345 M0.3265125037959393 163.7677266985072 C35.47569398898014 121.63083383269705, 73.39705563355878 79.96899407558793, 100.56621346687422 49.21792435740267 M-2.0100773291479186 169.42003895308983 C26.904206760253274 138.64808713642384, 56.106059476704104 102.64221713180362, 101.00265898139207 54.05949393572723 M-0.6076050882975892 170.15757703934025 C39.38810109318405 126.46129000323084, 77.63443242701997 81.22823082290714, 100.20197540664105 56.26265712926602 M1.0568479835005746 174.7718461141327 C38.05157689013936 134.9541791468235, 76.36514733535157 89.46666918469201, 102.4732212264136 61.3696636761158 M-0.17102398770430227 176.16392408351987 C21.08577798522564 152.00041275055023, 42.440926350032655 128.67287458415208, 101.37060644925093 61.05175525681965 M1.8303660921097133 184.44460507341594 C36.223673285693096 140.666156054542, 70.63869821607103 104.03660451035392, 101.9881448220833 65.42668853505722 M-0.35988324849900266 182.91868455008537 C27.854761358702298 151.476570418783, 54.34775979855215 118.4252732343239, 99.5544831656291 68.1448698341029 M-1.987687607142476 190.35462675852924 C37.81578606186307 144.56758711386857, 73.50464063766911 101.38062622718644, 99.22973391457916 73.35391069014123 M-0.364254212784914 189.10800579240768 C24.398787769366503 161.6453233822058, 50.13061388852404 132.09118765494236, 100.60454983867228 73.09338258948675 M1.0662410319220328 196.34400334706237 C40.854834297267864 150.80973153299942, 80.58549422658695 102.1227908315157, 102.5170114000792 79.32545356895754 M0.5261824023347401 195.17389453885784 C23.76946832491639 171.15801613677007, 45.56488442185973 145.28539593275923, 99.83464137627728 78.64203462634215 M-1.8757521814903129 202.56973700727332 C22.262240271823504 177.9804948996283, 44.47630354455473 151.28281700969137, 98.71254183778991 84.95535058976422 M0.016459417785156916 201.51584563347507 C27.836745185019886 167.7737621746939, 57.11796936576938 133.75359558007153, 101.11580622436931 84.93055516370843 M0.4543834277890255 206.34577283652908 C38.43196256530591 162.24983718504305, 78.28935592561903 116.77629340941918, 101.68984465287978 92.13957809992817 M0.46123639545362494 207.14537497440762 C33.94240121576209 168.9000573871659, 67.90001577362753 129.72882112833054, 100.53121956983561 92.14819447473374 M-1.9128188310334764 214.30567550308768 C38.00606885633908 169.11570547544386, 74.34075099406283 127.8329953057511, 98.95992190455534 99.2187320177075 M0.6788274062653699 213.66119615569477 C26.007028890563856 185.2281077172017, 52.2189385265291 155.1943496622691, 100.19021110860147 98.50890052845743 M0.2830701882202078 219.24466218453887 C39.282743879096586 173.09395745937712, 76.90212479511946 130.5710420816713, 100.13867148899456 105.8200607706919 M-0.39388576688283194 219.9037534057075 C33.409758805957544 181.99110309789725, 65.98360497681196 143.6754394846097, 99.88317824856361 104.90585192825046 M1.4391983817280618 224.50873130847242 C37.33613725375378 183.32183426738357, 75.53311949279484 139.89630138314885, 98.85371005237548 109.2465940364711 M-0.6071307160942467 226.15685032781687 C37.92672623835568 180.35688800794355, 78.71331990991534 134.7301443269343, 100.17590902261881 109.11308665248379 M-1.0037446913034245 232.38379129314626 C21.97346664218818 203.53280374277264, 45.7789524027041 180.1143716215989, 98.65119590390452 116.86627148330317 M0.4960785045563654 232.34927864106203 C29.740798054439924 198.17300618241967, 59.0710085825157 163.2278227869318, 99.50390500169226 115.98713079519675 M1.9058853942942875 236.93769348592738 C38.61518169491441 195.38265412664128, 76.86645210325271 149.79970173577104, 101.46324221875028 122.953975708555 M-0.6651454180437071 236.70935111859123 C24.46483333404698 211.27021832331175, 47.409933473159505 185.18612076537133, 99.82729449767129 122.12153150453749 M1.257215697727645 244.1829088050739 C26.911938108809718 212.00720047955875, 52.38284178651254 183.83745523847267, 102.2344448061192 128.85420888048472 M0.10446471203073315 243.74007822944384 C35.87890130264849 202.37262858810942, 73.73274319405186 159.5910153004205, 100.4448603314811 127.82203362454536 M-1.2557308848253257 248.9185606781755 C22.93730742315072 225.72728942642217, 43.812165228271404 201.0127489545765, 101.38929531218926 135.82312567668203 M0.43124380267646245 250.87370107699078 C22.123567096097766 225.82652430214284, 45.03118294800255 199.1296847805208, 99.64895303601841 135.76111263359132 M0.5727872928133877 255.11955378282187 C20.82869409265749 232.7313038934998, 42.31341944133737 210.08320222828524, 98.73900413313854 141.41766202473661 M0.46691738679024297 256.673320139603 C28.30558850078581 225.8561480275846, 55.86768511898603 194.41506681094296, 99.81981376918006 141.17960338504633 M-0.632946460149725 260.32570278727115 C30.366901507711912 225.97097448181057, 63.115992860003075 188.2177743733809, 99.38832332817347 147.88466384290655 M-0.017075464702685395 263.0345240113199 C32.37240262389852 224.26495507983324, 65.01924919905032 185.16171200479317, 100.51989722689123 146.0883288479497 M-1.3626939685461537 268.48376528889014 C28.407498452190012 233.92787641138273, 55.389872526576404 204.77685346843765, 102.20295982246257 151.0029199785588 M0.025331060084937462 267.8399223402895 C35.833255667929905 227.53582367097624, 71.87284026479607 185.63123254329673, 100.14878484603919 151.92263304544963 M-0.5937344231694226 274.110118455937 C38.855612029093415 233.087021857403, 73.18712175547705 189.1406484602071, 98.43610317521234 160.24583884995138 M0.7288572820783372 274.93432247055125 C24.405947941899935 246.64706824357, 46.369371255012815 220.26411970048284, 99.75721257254918 159.5175576965854 M0.6765488221584519 279.13279196600155 C27.418131834461512 248.00077761634748, 56.40670617451843 217.06903814515377, 100.19583878260079 163.62348138467408 M-1.0282087658257524 280.77926238047615 C36.66255734875825 237.27430339763043, 73.24828887293901 195.32095934181285, 100.70198406431797 165.76237515472806 M1.3374911636155105 285.2805967466733 C28.934204315064935 252.8947963861999, 57.16707910817568 216.56818906209287, 102.3519707908059 172.07168976031656 M-0.5296884257305408 286.65463942343507 C29.979332342750855 252.38250699477774, 60.84226608738987 215.85497814813078, 99.74029360424228 171.8022171482485 M-1.9280303395917429 294.47225371621045 C31.023430308558865 252.1698358225721, 65.74240727221832 215.59419270889825, 100.44284500903419 175.8412161451369 M-0.1271895017107738 292.86033906846734 C27.14238866957628 260.4968734846605, 53.6587927233176 229.9516827396408, 100.1240490132474 177.23970352118607 M1.8238162377051879 297.6584267219799 C29.98473585812508 266.8521278933832, 57.20190746548875 233.14057412886854, 99.14276211245415 181.33975563650205 M0.41480694312079436 299.3707678387212 C22.390182556912986 272.61233929821503, 45.418260770319 245.83064187933883, 101.25478485322056 182.78947517168893 M0.4243454547127783 302.9843991822397 C29.30730101484821 272.2889856497713, 60.661241249415 237.57103791332534, 98.88850541027227 191.29462290267003 M-0.26702564531061057 303.8100299532359 C22.45235379533764 278.71971608828403, 45.616263591300594 252.90508444008537, 100.49769019508699 190.2533706937964 M-0.9402322923909878 312.63210702457957 C34.196039450364836 270.9680845713289, 64.24683528935812 236.45234139780305, 100.34675404866658 197.5947851212306 M0.5200538908917451 312.10646026538245 C21.346767499882255 288.41416979071835, 43.61787495045409 262.20618265661244, 100.83652182174347 195.17495931587945 M2.1780121425719585 315.20926742658924 C36.1251771422655 270.4998464655886, 74.38992591715069 227.1738177932208, 102.32090592381508 201.67999071977346 M0.6191773346246805 316.6942530035318 C22.004423417832133 290.70421597514337, 43.73060816169165 265.81962535756094, 99.96792714108676 201.04116964130907 M-0.6044504311919354 322.13850755652675 C27.80678193039323 290.82183780227075, 57.30933570320324 258.0712532162679, 99.65790059492423 206.92989811655673 M0.11819000681339276 322.71509051172325 C36.74719289585912 281.0731815534723, 73.054796609307 240.66877071008184, 99.39576709904208 207.4839183891246 M1.9648056614858262 328.49939751175907 C34.455745066369666 290.4382908721965, 65.16773345738584 253.11532077036932, 99.71563248716251 211.50610865894726 M1.0045639693451278 328.672676188105 C23.624636751878114 302.14017883384446, 46.9668363120312 275.17965077431336, 100.08602938249663 212.93464333247414 M1.4006887298117476 337.19112696054424 C26.248156530058118 307.84236830031557, 50.74263141286102 279.6297763741186, 100.9894786597365 220.51484326520313 M0.9794257931451398 334.4079111267164 C30.139291106994666 300.791079274269, 58.74495931827472 267.4748442093947, 100.28085618737578 220.59947994039703 M-2.0519970800361307 339.774538080472 C24.046510468790224 315.5297547514309, 44.19368169088492 286.5657370794214, 101.57971200882417 226.84897536291408 M-0.8875302388897808 341.75342705592834 C25.51586513729535 310.3779189690465, 50.60782471456941 281.04747803451, 101.1534574215762 227.11379431626426 M-1.511728871879825 348.86125429913204 C34.21742217944556 307.4440659750568, 66.24382772447575 272.0547951221251, 101.09832418060351 231.57715962966984 M0.9362807811370999 346.73521507911187 C32.25023839460169 309.1101126264272, 65.08859722250747 271.30945371373423, 99.90243361799467 232.7438119384468 M-1.5534420865128595 354.50280903478244 C31.343805535116324 317.12483712840503, 61.48113498799591 284.38237178632454, 98.57584848428102 236.33296073372844 M-0.45934270084899254 353.77425441530625 C31.19145947034868 315.43204286670425, 63.18796426770969 280.0671801094813, 100.84609884755643 237.58824640098396 M2.25888270123329 361.03267863479016 C34.274556373968444 321.93950330658686, 69.29975283736859 280.66861085661776, 100.92877309502522 244.15688627245686 M1.2275245020392163 360.3410453376597 C31.115703429433452 324.2023022630717, 63.54695582853047 287.14016709499987, 101.07739392214874 244.23283235202393 M1.9987475505650707 367.2289590174133 C34.56786118155186 326.28727523116333, 66.70665763397686 290.179959312427, 101.58606882204256 251.65906341411318 M-0.6750379142730765 364.93078581521155 C22.535255796250357 339.5887385727991, 45.4777594014017 314.16598813126944, 100.27791416269682 249.72550213560606 M-2.1554496423394767 371.1563986102414 C25.00889053640613 342.0118054612697, 51.5798120674058 311.37897277080964, 100.95660231151106 257.861271836287 M-0.15788254188908013 371.7179044513327 C39.106590780167984 325.28539992164417, 77.97066064116619 280.2565770230506, 100.37282260209741 256.2309187301012 M-0.013592231302311575 378.55552709086436 C23.016205454797806 355.48522607662886, 40.73963109020674 330.7396055559754, 100.33595895960876 260.58607246656817 M0.5635286520879959 378.75768922439414 C39.346259204523655 332.01802538189185, 78.33013712094284 286.79008846191334, 100.62517289824733 263.23210448888045 M0.5011551798545213 380.9676553868719 C37.13017896291338 344.2297695114582, 70.3484167089735 302.97488318706024, 99.81326582554213 268.84593622321466 M2.111624325554857 381.92378748776696 C22.181803232351452 358.19010619384784, 43.128933857977 334.69933534093934, 100.73023224707178 267.73206988098303 M7.195523824280599 379.5957469351853 C42.19797207442416 340.0287722199177, 78.15241608370617 298.4502925278695, 98.73860483447967 275.6852769535935 M6.97740084837983 380.5815772291536 C31.68370001997156 354.0867471737399, 56.52511173105628 325.152932534624, 100.47039458545802 274.9083464295572 M14.296314366229808 381.9953518051766 C37.22452895681792 351.40423718284035, 63.51766649260229 320.32143679102404, 102.34954054562789 282.3431280759626 M13.398095896535551 382.09160119370745 C44.36834936344612 347.71629376298324, 73.49120671649655 312.5186945412027, 99.5292083593313 280.0881633536422 M19.4465774808707 381.1054150942127 C39.64336545146191 355.58740193247115, 61.60827037346267 335.01692266132545, 98.23853335516478 287.0951755179119 M17.540869031909324 380.65287527957656 C41.67992510544318 355.03299623218606, 63.67278789721799 327.98047547219846, 101.14628972658838 287.4029805066091 M23.051846477409782 383.1845014705516 C46.02455310392875 359.7047963219462, 66.3713301254647 335.01540123515224, 102.25976240926833 293.64288645703095 M24.036534325426402 381.0516130808003 C44.12134358458614 357.62128670352695, 64.19104508346467 333.6380475672985, 101.21164547012599 291.99011711682874 M29.40360953101549 379.8981185315604 C53.29898815614233 352.5967613203595, 76.73773314305298 324.33778635419105, 100.43594851714504 299.50263806157784 M28.290532588973974 380.5610492455269 C50.07368735775265 357.7875978462484, 70.3285400922446 332.17332324940566, 99.35999591086936 300.1943805283405 M33.305837450894415 380.48139344549696 C48.92508862533839 367.67980896392356, 62.37686628990623 352.2894408452431, 101.42576735396344 304.84775042891954 M34.29695914347738 380.9166161177955 C56.14532190421707 355.09312648773425, 79.2203118559089 326.83196952797437, 100.6256881107058 304.2225991392926 M41.198455912214996 379.82639630972835 C58.745044928847776 356.1791251182909, 80.563889969322 334.70310453185306, 99.15037722893001 312.6711632273141 M38.94953605082381 382.2157670957545 C63.188898683512 354.89404895193366, 84.84211821281787 329.4478146122311, 101.25672364056052 312.11879904372427 M45.783873224183765 382.64481679251264 C63.84203632360291 360.51344446258804, 83.90854435859609 337.46311827745967, 101.26083228822276 317.6274686343512 M43.855639881938544 380.8931532734431 C61.26763725148439 363.9408866990824, 78.44528055931052 344.05208879111046, 100.36967178333029 318.41873697000653 M51.15045256196919 379.55528749121663 C62.59900605379005 369.5375097887397, 70.43095304665601 354.4958744123749, 99.04490542801967 322.42204007762064 M49.6472739487088 381.6204467990094 C68.60179877416206 358.8561229911256, 89.71976347741801 336.39523293851926, 101.04399244691184 322.3515290215104 M55.39903973477777 383.2460605740986 C70.00668240267296 363.028915220668, 84.57172459469382 348.7045348246379, 101.33391120752727 330.2001609753804 M55.795096072059835 381.28151751649295 C68.71825767009872 364.5924286596176, 82.01682731937719 350.44094826413055, 99.41635907723044 330.04127941727506 M59.11037638878756 381.31704071874805 C76.59413008219967 365.6477277927403, 88.1969898125552 348.45917624524924, 98.97011905191403 333.3890576749975 M60.263331784888436 381.6269659042645 C69.383349005489 370.6729443162133, 77.84986615217008 360.3295020780718, 100.33557186117332 335.1616134304488 M67.25192292017647 380.6689138527548 C74.6636047668179 372.55651823538324, 85.35669002617553 360.90067992895587, 99.43328102038643 341.86057609472994 M66.60409724509128 381.47575181569516 C76.61761722595087 369.5648169854717, 86.64593049460981 358.46733395194354, 101.17658549466572 340.91085403007094 M71.0846813881511 383.892275894377 C78.59606465337838 375.1663816777019, 86.72531043902974 364.32825021063513, 99.30804500912254 347.7732146621675 M71.05172214859371 382.9168232198242 C81.15120299103224 370.5611649703374, 92.0419313170902 357.0432447100402, 99.49542238560443 348.66655481951244 M76.63060871787988 382.10966569098144 C82.57780748358516 374.95900836415746, 87.80898144607917 366.8820369401936, 102.19077766430033 353.9612530548998 M76.17766293228291 381.96364913979977 C81.72166328785411 375.1051743065573, 89.28971814388849 367.72542260998006, 100.12349556688619 354.1871287771442 M79.29914446856932 383.1382416608262 C87.05652710187654 373.1032973528551, 94.1293224445346 365.4129471302152, 100.59638729512625 358.323880941185 M80.70453054208414 382.5293962946612 C86.63669312615785 374.9809368919797, 92.63865739803697 367.9543549897239, 100.2619316094362 359.8134769970056 M85.01068306538798 383.5771051512784 C91.06332912341568 374.89144084271106, 96.0356554723767 369.45997872564027, 100.42573707676888 366.66723091839003 M87.8170626648847 382.3267524575567 C91.38506573919577 375.56249830082277, 97.14369839393305 370.17542420098897, 101.1364838251418 365.1235216272448 M92.50897849041046 381.3349208511013 C95.10108794085353 379.07681977535964, 98.38262843244148 374.57035913129687, 99.89394338539734 372.6340930093028 M91.30846094430433 382.55245276210564 C94.93437318554369 378.9125224063076, 98.45901485596727 374.82730645850745, 100.0365450761181 372.66030579143614 M97.26599157868375 381.67296134948936 C98.3745299286742 380.6265278948935, 98.80504545782634 379.92178170630115, 100.25212132467357 378.821538099132 M97.70090839347293 381.54252803780344 C97.99469583319613 380.9525937606293, 98.90571356455526 380.3750392992538, 100.32336124575166 378.44376845941645" stroke="#fab005" stroke-width="0.5" fill="none"></path><path d="M1.7278573028743267 1.399867046624422 C40.492125049233444 0.5617905203253031, 78.07397015765311 -1.4178119357675314, 101.6639772169292 1.8442383892834187 M0.017134124413132668 -0.9186804536730051 C26.532266249880195 -1.0064815282821655, 52.46017341502011 -0.7804198861122131, 100.3688116017729 0.9048291798681021 M101.1040543200994 -0.9523144822949543 C98.8127685281329 75.21071909917649, 99.29911198260712 153.0069837237006, 99.43539124480132 380.2993778045243 M100.53094358259169 0.5135752836537547 C100.90910688641802 104.1017600196344, 101.8370665377839 206.53715729957943, 99.4738462580028 380.3160200531107 M101.03793854638934 378.3315727598965 C64.76024878770113 381.5169535111636, 29.167079750448465 382.4432272147387, -1.4980866201221943 381.8607600815594 M100.2658658567816 379.6107727047056 C65.8597440700978 379.1302730552852, 31.645816268399358 380.00086976215243, -0.28157699666917324 379.9967937823385 M1.1949310027742759 378.921634917069 C0.11532538823684668 295.43632538265047, 0.8868547310014627 210.591674027515, 0.38651270172242075 -1.090375157027878 M0.3006722413572483 379.75936255573157 C-1.8559394761796668 300.12312033542815, -2.604905346473642 221.35884867300513, -0.27750457789869976 0.2601202518624253" stroke="#000000" stroke-width="1" fill="none"></path></g><g transform="translate(530 50) rotate(0 110 190)"><path d="M0 0 C0 0, 0 0, 0 0 M0 0 C0 0, 0 0, 0 0 M-0.14772596877532695 6.699899533440464 C0.880094951399747 4.597440459649649, 3.117761795394185 2.6983233504065613, 4.847307361247486 0.5129892166552358 M0.07244092378300931 6.37597021688997 C1.5455742867162452 4.275807422311745, 3.354504110662484 1.8925086015840749, 4.641435630949682 0.4786960113642031 M0.191756478799473 12.457166722833692 C3.9485123786563 8.04217526272268, 7.427424209491678 2.226044293181252, 11.80447023357166 0.48125563516167436 M-0.16193377439867385 11.47495459508854 C3.304310623232977 8.801331758988283, 6.601605527103722 4.336921338509534, 10.00474674100889 -0.3714538623497127 M1.7284761080005904 19.430526177306348 C4.165808691138102 11.231686298150846, 10.07943976683092 6.015977242915593, 17.32672285614856 1.276954483885782 M-0.1565737845888595 18.18716099197107 C3.8422061027540746 13.759671766870433, 5.82670129873148 10.957973021727554, 15.60927675431915 0.436173076455014 M-0.5801343058981683 22.29727717646873 C7.839909725384958 14.644784114947628, 17.188918918784072 4.369214909823068, 20.98654393320706 -0.7405783669859645 M0.9835737480036233 24.04874706984973 C8.970910868633826 15.337934521794773, 17.183278862324965 5.456702516233559, 22.13129457486596 -0.4823548501193997 M-0.9620820385823592 32.478411065180055 C10.589819093403102 19.234862994223157, 18.017924370764653 10.682937052553747, 25.79189976179263 -1.270022273621267 M0.6767591601749317 30.9819162783662 C5.893063179428863 23.92172092461981, 11.393817209436875 17.838179941983878, 26.896718927335353 -0.5440823608997523 M-0.01606880324897375 36.663432130405056 C10.815076482130335 27.491016299974625, 20.80965708526707 13.266958986222672, 31.882178907698787 1.3538862207218294 M0.26403903950932417 37.74910991620396 C10.789064033425158 25.241558151359932, 21.090096219180353 11.61084360804821, 31.330399803302086 0.42473788757466124 M-0.540015063094998 43.05356340910845 C8.82515799036079 31.361868684383737, 20.195076020520823 19.69808142689685, 37.69831507075702 0.20196764367637243 M0.9048293485910648 43.138159907046486 C14.18613677001196 25.235010437120824, 27.910745132558095 8.612279161355126, 37.4888104533789 1.2045821846556386 M0.6257628817110472 47.500875428923294 C16.04846261101324 28.328513847494666, 34.5205186755428 11.553608115658179, 43.35625931676083 1.5879229519843108 M-0.45377166196711727 49.28891754024558 C10.053047771931833 37.280148102185734, 21.6590480208385 23.65906567421963, 43.246019619140554 0.20747912380387845 M-0.6840339030373244 56.10031914659153 C14.1858798745737 40.03228679752276, 23.868775518105586 24.552217897574195, 47.523507845541715 -1.018989826721306 M-0.5470702505904583 55.47278640926193 C19.303937494061902 33.63114003820951, 38.355974672796286 10.643954634137138, 46.98271930119979 0.5771862443711804 M0.9168407824913771 59.10240258974622 C10.862371744560393 48.70947440334578, 22.98046400740329 35.70878935182694, 54.79257422289318 -1.1566322356985204 M0.8962505833337815 61.19289905344735 C20.9367907927439 37.73808669028318, 41.143537047992204 14.148274934216197, 52.772196991131366 -0.7859866101817481 M-0.9164085248998433 65.50522379535208 C11.248504150824408 52.153087237781406, 25.694771403960058 39.96998778126607, 56.557517148646724 -1.4573087473142898 M-0.31595569761014275 67.96364989648531 C20.699620998092072 43.10095266297651, 40.96351004989987 19.259339221407593, 59.06936343954803 -0.12500065050311449 M-0.10279603840798046 73.19359955037383 C24.002610875557718 45.92072533153364, 49.67058109156984 18.819405859669246, 62.387412688595845 0.189556595173336 M1.130023744162024 72.63732398705928 C21.902073222222562 48.569584897841835, 43.58196215794989 24.535095795403812, 63.89672488802452 0.19873521686778162 M-1.9787318082015446 79.07819413244454 C18.472703384191433 59.0032546465568, 37.11278930482441 34.50808367475584, 68.90288204257205 0.5500968193974032 M0.023084034263021636 78.73072573952106 C25.391364366007565 48.49547763328632, 52.8508379779242 18.376194188886416, 69.5334108371736 0.8055410312827362 M-0.5806085184870255 85.68755224830613 C22.504962855269028 57.36206654324007, 46.316311384132455 30.362867625032194, 75.14956377636882 0.8833253820998834 M1.1572157892676103 84.20471187233136 C15.988793596972418 64.60364001428597, 33.69641954552279 45.57101094391234, 73.70114627857002 0.3222891362024711 M-1.7682737194329334 91.08077567559168 C31.885414675798327 55.15721530231218, 64.28863976031768 20.189253532949493, 79.47464158981768 0.8538128109137944 M0.02053288478852977 90.56436804984197 C22.540484545809125 66.20962281218256, 42.468978825110945 41.54524130128359, 80.25327946282653 0.4825808209787539 M-0.5076166242362632 99.4395562012659 C20.77759445006677 73.81107444751947, 44.59288453914487 45.011713125394365, 86.90031654871211 0.36901006258111124 M-0.6748143415899648 98.63854182073638 C30.044735020207636 61.776451414952064, 60.88331603435924 25.561733059847228, 84.36075413151787 -0.8484303209276902 M-0.7137451960940098 103.20730436229351 C28.41789320394518 70.07977370542493, 56.77062964756579 36.3839105133834, 90.00033485288361 1.491925164734866 M0.9766838227163817 103.90647135869804 C21.299047768906007 78.071824919907, 43.43436159524712 54.03875636315298, 89.20113728525678 -0.5738617501650793 M0.9058367648253167 109.22827818630756 C18.197997307897282 86.26223697470186, 38.5811774176199 62.709723863778784, 96.27346006812573 -1.7215534258829734 M0.043219378320308977 109.82441420307876 C32.51761090706535 72.83268804647331, 65.31139042589925 36.242276140335534, 95.14459141561807 0.6597213767273047 M1.5686428243152264 117.33961613005003 C22.81807847507398 87.45962120016303, 46.79542785477112 63.17255193312675, 101.02000089426988 -1.309980181639368 M-0.7144201832034227 115.60518019733927 C35.77003886418388 74.71845605783301, 72.65123437641134 32.60196973431759, 100.4429022732144 -0.4375171508987492 M1.2937316822072091 122.28401372115394 C28.64656212537203 85.48935455197585, 58.4815605089892 51.8166304360236, 106.71528339710963 -1.5690291457923635 M-0.1538241112420735 121.31830813083133 C32.99357970541626 82.86303869361736, 67.08854364278122 44.60744968288543, 106.41545109962058 -0.773861239582537 M1.61912037530427 128.301756496584 C31.44573296679421 91.46364781478611, 66.41264575875033 53.67956499652594, 111.88617877647646 -1.1388172907089213 M-0.22104519321138838 127.66959867723841 C34.0637734461656 86.55824598800305, 69.03868610836831 45.30746115972805, 112.13824239544935 0.22413415002773007 M1.7586071904094212 135.26984874330498 C26.303940283676365 104.35728563132696, 54.507244433334606 71.62491320421393, 117.82851656917336 1.588128420575707 M0.018723158472894852 133.32774313524402 C22.202031188272866 105.35975532855126, 46.53381121332551 78.58435435702864, 116.97381712328496 0.39117594161555047 M-1.2414054226458688 140.8411422389499 C34.41904031122635 100.20136948649684, 72.804260443659 59.706893513306184, 120.76390756200334 -1.3940002249737802 M0.35046981942349476 140.25095216919996 C34.23250863120518 101.50589156097217, 68.83226017183964 64.28821333074141, 122.54057562071165 0.1498616838643727 M2.2155023519319315 147.03636919026073 C30.264143425283645 112.57225759129958, 59.46061010948249 79.82957031676962, 127.99656670479789 -1.5651639497243153 M-0.060720843784807244 145.4664887475669 C30.367350827883758 110.91808366192255, 59.9508448149203 78.77547279214227, 126.68210051334216 -0.16269170887398587 M-0.757587964941956 153.97497685769542 C29.643389265201726 117.7161293754131, 61.87340652517408 79.35713836747824, 132.6221854234102 0.6333434441692084 M0.019856046530716848 152.19427225509233 C29.7687801996556 118.78376667008354, 56.60194668090392 86.38790901271184, 132.05402349939754 -0.46761617124072075 M0.622332427381775 159.30856180407113 C37.60507507276119 117.18212529268199, 74.15610866089642 74.69578084086729, 138.3407325047217 1.8974310694151115 M0.34679008615119256 159.4259562626259 C51.474188112165116 99.07619284026477, 102.65307834196244 39.44827573571804, 138.41238749938964 -0.037229314640610855 M-1.3419095742264975 163.08317287746056 C42.339715044002375 114.5167633605123, 88.64148386507014 63.92366995958415, 143.26386750438144 -1.6153294972461405 M-0.36697363616303613 163.97210873880258 C49.799967880960864 106.79230603756764, 100.36341109207564 48.23732050907504, 142.97848999165842 -0.2029885496634613 M0.1323677329333543 170.125029078214 C43.889311153960016 120.48133285111483, 86.79551359754096 74.0758884197796, 147.91797178719892 1.0462608261763515 M0.28556129917658635 170.43935480526787 C54.94004040558553 106.3384544820107, 108.47661601630703 42.69409414549823, 147.38134610536278 0.5836265138908558 M0.9310105643985213 177.61992943891573 C47.822196708012555 116.40802349852656, 97.51316828600518 58.882296623039515, 155.06986833082078 -1.62090074609252 M0.7363315542831788 176.34922976121368 C55.21567997225762 110.8181914878353, 111.45738629909128 47.67034179186789, 153.9108950621862 -0.025193406231038232 M0.18763857911910303 181.39643030366608 C52.624198202433256 123.10269662185384, 103.47421588535704 67.53765023793339, 159.62390145630644 0.36932601168818746 M0.6053059206202682 182.68423590641055 C42.981272754995686 133.6889292605018, 85.63983255866322 84.36790513289698, 158.69900546316245 0.3750137582960268 M-0.3664802382227667 190.49509988181805 C52.16117296000059 128.814398033966, 105.98127843099157 67.86312838005692, 165.81586131400462 -1.7437761806278789 M0.049397788988823355 189.44134661248432 C55.35963115962213 124.56879696906428, 112.82879137817916 57.957655927010485, 163.73022654545784 0.3683304967740971 M0.06844631388822582 195.97851633716564 C56.25129509358434 130.420203085288, 113.9781195636153 64.10787989992441, 170.3043885568684 0.6130289358139149 M-0.5343183602111352 195.4364448869035 C46.833341118193445 142.86286472453472, 93.49539417205057 88.51265293926366, 169.6788583386577 0.06923048786202526 M1.1429683949068945 199.79479547687072 C53.49880744008974 138.89835112244026, 110.19468676226222 75.49506659285, 175.78480277939747 0.8110754946841381 M0.6093822838268514 201.4981459321142 C43.392982004267395 148.76530570930058, 89.54340442172115 97.94486796468718, 174.6907115832848 -0.8020424590026312 M1.3284360351899271 205.61573188545097 C68.71784620826277 128.48231094186858, 135.75777150348023 50.94251492473279, 180.93526308370903 -0.5378702415831845 M-0.0014053290109979355 207.59190694259632 C60.20171148217286 139.96873254157418, 119.99047990628377 71.53529821225519, 180.36509402271773 0.6269386468759608 M0.6922060017090269 212.1794280164638 C64.19360228978549 136.2603481634056, 132.6413071337909 59.69602779685179, 184.3211310490292 0.9966873855326404 M-0.47472504979735386 213.37585675195922 C52.263375185339406 154.05841148026488, 102.46891205570704 94.51345589698154, 185.77987994846015 -0.9614857836560217 M0.7616080944810468 220.5346329015033 C40.861827924349456 169.7168793323534, 84.96402059363197 120.86870398544896, 189.9824700844831 1.0456334198937147 M-0.1601186306299593 219.999886668123 C59.98828119290496 151.48249180842856, 120.37362842782689 81.68253880010847, 190.1214738083664 0.183035390501447 M1.1940220805235024 224.08777106319494 C58.166642698334805 159.30329045875916, 113.84459785460353 93.22251262616173, 195.8811024806147 -1.0199740548597023 M0.08129396160256394 225.46384983056436 C46.157282365941334 172.8989930395526, 91.07675779031617 119.00832822078905, 196.18067900978264 0.21988621104636175 M-0.48346237100838557 231.6506022549651 C74.02725075624238 147.45592208137558, 146.62898424524926 60.72707239883913, 202.496065039001 0.38865865102696 M0.3272306769331217 232.25830023946878 C52.22539054277759 170.84064576990545, 105.47736997000581 109.03797284591543, 200.64062356465575 0.3122601318751398 M0.07605500469015117 238.23038090466173 C78.32239981843905 147.51762866856785, 157.9876025829223 55.27867253395579, 207.7892199068687 -0.6801140482702335 M0.2179484540129187 236.96884916397443 C43.20880622056446 189.40657465581586, 85.62193990142568 141.4058180061207, 206.67535389855107 -0.24389754916305892 M-1.2384735513507092 243.06594734383643 C80.23163531955555 151.0847028091105, 159.2748601613579 59.40205695169464, 212.24471075766988 -1.0941373848716691 M-0.49720471806268185 244.26680539020444 C70.67523779682114 164.5491362727221, 140.11958634846428 85.52088106115065, 211.357933112478 -0.1295188422342748 M0.48737335769229906 249.62158884644202 C61.98326764880908 176.13533052423765, 127.21423538420937 102.74831421659003, 216.91796071656833 -0.7630845400739119 M-0.38648023223127714 249.6101800454921 C60.82437844824235 177.9703252573238, 124.15193127652742 104.79776799424957, 218.00199924949897 0.13622015449621583 M-0.7325538578607884 256.45286958966176 C77.96148906792274 164.9236492348839, 158.60058446314545 72.20517927413731, 221.14784980700014 2.1405036942566182 M0.3370063073759349 256.2344729315381 C49.32488416437561 199.4288526531533, 98.6437534128828 144.22296728749976, 221.20261776411346 0.9955503115964561 M-0.34856341364231125 262.4714143466372 C67.87352322556717 185.82282744704833, 135.07566666606425 107.4131766692476, 221.12481730430585 7.960523244136166 M-0.7406360626386398 261.6383634448611 C55.532789733364865 199.6551789361632, 109.53940594670895 136.68966453374878, 221.6669070643808 6.709595822048079 M0.9594907505413279 266.85815476070957 C72.27313275835299 183.94149553141358, 146.72263784692345 99.75387070089332, 222.0845497986542 12.34264502033377 M0.2723496085461482 267.95518071139253 C86.91781492617656 170.53929807262818, 171.99026980496885 72.72757374584602, 221.94552254045456 13.552130065889397 M-1.070468437377398 274.9987970227485 C69.01490706451287 195.30422994460125, 137.84613842689987 115.95108589585722, 221.01830415963872 20.237996411345563 M0.24710233637126267 273.8926862443555 C56.61420839126587 206.55873802056416, 114.98398460732473 140.39717241628313, 221.18855278359788 19.294022743986698 M-0.23262849033400662 279.7078542425362 C88.86891236363803 179.65557994449833, 176.18998674138115 79.25248921982895, 220.2090532140628 25.87336160375748 M0.2878882344153685 280.89576341962334 C45.6812447059109 227.2829982880407, 92.1534571044223 173.4220253329633, 221.8377778392676 25.410173663618654 M0.8310591318401074 287.555274116194 C44.71426421938842 235.54317428041182, 89.49771991684254 182.2145455995559, 222.51457800600278 31.530891625940246 M-0.2984621038947725 286.74213595780293 C81.52483039840115 193.7277115015575, 163.1074093039157 98.07895336676424, 220.76337954330904 32.51165253704343 M0.8056486766748967 291.54075192316725 C88.25111411180909 190.8725396002544, 175.2304958755594 92.64961330945863, 222.77655085808894 38.999897382224816 M-0.6474672383871963 292.5337359608765 C50.38113967707199 238.13115671294221, 97.72521112256774 182.29634037683772, 222.0059921509789 37.95554727316561 M0.37440089673636445 297.91607721590395 C62.51350654277356 226.07293408021397, 126.24862328407849 154.52856799237082, 220.7026077807135 43.707845279116995 M0.8435156686377454 298.134393267467 C54.063482752182566 236.10180358934394, 108.89901926000823 173.8860616556152, 221.35352291523122 44.19318678442718 M1.0567464145639553 305.3170585584065 C52.95706879699172 242.18994691144684, 109.59590882559502 180.40271536843557, 221.500523774753 50.8087154666675 M-0.10979647753799934 304.89329390495266 C60.37970914631664 232.8312621622957, 122.57956069413198 161.8090375867601, 221.62411726265051 50.16539616766436 M0.5147886982543806 310.1190376671575 C60.45557103144471 239.85909825933666, 122.4633380404127 167.90237935815375, 221.33221893052138 57.00373064975171 M0.25865670417233577 311.07210493277245 C86.88680714323748 210.35803621547376, 174.406848026116 108.80793447032812, 222.0087057161222 56.72150318625947 M0.04468290926075838 316.6652830616472 C46.46984779205727 264.0779039178768, 92.89266305735345 208.98998320087483, 221.38382569663145 61.26045983513852 M-0.3172753193768773 316.1647420943339 C44.79559947225547 264.5494318439909, 89.42102276845219 212.7612139827219, 221.28410936009013 62.04254184970965 M-1.3250311294601984 323.36458624920147 C68.93999970183852 247.23287723236817, 136.3902712576992 168.4253383966449, 221.95147738890606 67.00419712836249 M-0.0739907184608281 323.8783927998084 C82.52681473352264 227.77021823210353, 166.21079246544474 131.86929538324455, 221.1619044789306 68.64425490425523 M-0.8237406490363723 328.03872069470674 C53.93889181995714 269.86517190931187, 108.4181896738469 208.13022018676816, 221.90249362471127 73.54673557010238 M0.6001220518616669 329.5084741439638 C73.50770947564695 242.4840876604458, 149.29088871450793 157.06255515602942, 221.59941542993707 74.28155722534048 M-1.105700466568145 336.57082850675204 C69.61265468723784 257.5449702877604, 137.20650071494342 179.72634562940658, 222.00273134590515 81.481996427597 M0.5827311811319034 334.7364210357805 C85.24891990352377 236.56441499515452, 170.38356195604524 139.13552739978292, 221.32786212714853 80.79103222644102 M1.0957315909275456 341.4368605680894 C88.38773526259939 239.72780152437264, 176.6331093217694 137.33457254070623, 221.10544752298856 87.8806659071641 M-0.11082371152373044 341.72598634254393 C82.02023922073882 248.10216746290598, 163.99678255808388 152.30321291271648, 221.9463142664837 86.08934836179718 M1.0552086626823576 348.02734995023997 C47.94429293408708 290.9078564052015, 95.64309073665198 235.52733889785316, 222.1569659921673 91.66723312107021 M0.33676748553893865 346.70428966027157 C56.44337194573832 284.317610527487, 112.11923612455968 220.07928223558534, 221.74929807656602 93.00884393123575 M-1.114922196256638 352.69016119285493 C57.669492226873686 289.0595172326412, 113.04119425086884 223.6429762770417, 220.92811654661065 98.48414456160188 M-0.4833218180207249 353.67248541861466 C73.35251480178614 266.2490126161196, 149.00352794260158 180.85861768130627, 221.75276216354354 98.87078992930616 M0.2159359515043957 358.8207784713366 C87.55235048978861 260.40096959641164, 175.6923905528973 159.06966973713494, 221.56961829392878 104.08103164250866 M0.708120657827316 359.0979597850235 C54.261179235138464 294.238251903274, 109.55733251951227 230.19536945842256, 221.01443322168154 105.16265879526986 M-1.0475776918575979 366.72627803277555 C68.20047203585172 288.097735958493, 135.1848660363806 212.37550824553605, 221.16579697607378 110.4307545700619 M-0.46002210434257684 365.3817613703598 C45.87005380983404 314.94010893550745, 91.31392289873118 262.49283800776743, 221.1775911408371 110.28462186086851 M-0.623565871835996 370.9339853837598 C46.02921558011147 320.86549303853917, 91.80439825071267 269.1912179367164, 222.00353469600535 118.24467407535985 M-0.7278534676777129 372.25373610823976 C69.01982391192125 294.41612391341613, 136.3484546228103 215.86720122792795, 221.17671949081603 117.64290758156476 M-0.47757579461381683 378.46397608119116 C68.02530100954051 294.79364138600175, 139.34624985994873 214.50478030753004, 221.50384383089164 124.31442245795402 M0.7373570229620788 378.4180452872567 C60.98814399070799 307.72630195062965, 123.47942096428235 236.13327069301866, 221.7980060423461 123.0345059757623 M0.6382049282333795 381.932187382725 C50.42442710794967 326.90732749339793, 95.98910078192884 270.8987496373445, 222.401219760809 129.02913100516142 M2.300328025291042 382.256485453171 C81.72535615342994 288.1597025462336, 161.4190184235835 195.58478985475463, 222.32284685129753 129.6937519763073 M7.938814532793491 381.33291836098675 C53.95947739537287 326.2278660445184, 100.63264707920771 274.65003274812165, 221.45936549371956 135.9142866168582 M7.129470479785594 381.62262841679114 C54.736263404215116 327.2233919883748, 102.08447260125538 273.1206942991623, 221.18065667349518 135.14631116654266 M11.964974931580151 381.0969258315974 C53.85849188643522 332.15802055403236, 97.5959734804666 279.4032717740064, 220.18683590954572 141.5571824486163 M12.715048833734034 382.46268870168996 C60.66036041585497 325.1384150025634, 109.3399789657853 269.8137445132366, 221.25728257316487 142.25423000958767 M16.76956097462298 380.3360420104427 C61.50867290651974 331.07935885430857, 104.66055018597251 283.87166823268495, 221.82145788928133 148.80590737403392 M18.418283487427612 381.63665360279265 C62.99870296925389 331.7812767042452, 108.72090583298777 279.7402280555294, 221.01671783130772 147.19427292944462 M22.029596013865294 382.69726531464556 C98.32026912096381 297.5641546894648, 172.68975667171648 209.91692443073038, 222.2955178446354 154.93410575671822 M23.793510527044262 381.6539125765227 C91.0130432818319 303.16621136983116, 158.49910771426687 224.70394204215194, 220.80366018859385 153.52657177491957 M29.691152529712355 381.4467686279376 C69.66778173053977 334.7808161455023, 108.83466792878617 288.3610814059556, 221.8508333157788 160.3898728268853 M28.11607914847386 381.21808526466236 C66.93993344885946 334.0767574695691, 108.31040679168858 288.63175421857227, 221.81179069540536 159.27256798017763 M34.23739903660756 382.89782540494167 C96.61574195688087 310.3055214058884, 156.73251760078884 241.66952259378817, 221.56818347692052 166.2434635856423 M33.89984315664444 381.9911365048849 C104.22322938848961 302.57780866867336, 174.1417536141677 221.44296210231235, 222.1308142111624 166.54313137527495 M38.38055631900964 382.71806389424773 C84.24426115320215 330.4194528704201, 132.6399852314932 278.3253355350501, 220.6670115049292 171.6621562807024 M38.7663291036278 381.8280765971676 C84.55950429522346 325.7521839535275, 131.9015686929624 272.0794202528494, 221.24966515773593 172.5518117141779 M43.73465680420155 380.5639598309037 C87.97733771944966 331.64596427896646, 132.28495968603463 279.509106523108, 222.12681728892062 179.25148683568148 M45.145785713306104 381.5734512170987 C87.90334812343187 330.72247943070585, 132.00629061248392 279.8400152388751, 221.1261468675795 178.7440462800386 M51.484138583345015 380.4432541238574 C97.13501911168248 327.1106755761454, 142.62084648396112 274.43604241029345, 219.9807384392902 184.75143301360376 M50.183721588655985 381.4737962895727 C116.51505329365743 303.006894418079, 184.23873709164843 226.7663946497791, 221.20126528246863 184.72512167903247 M55.352890521041715 381.0600107209495 C117.82253620660029 308.0881056754124, 182.3327931015234 232.42443432881512, 221.25615296315522 190.32071320712876 M54.351299387800694 381.7926436434863 C109.56176541816667 319.8131079311974, 162.1038229415075 258.4533936988783, 221.26631378455423 189.9538421585953 M60.740713589494696 382.8796288530583 C113.40596590884891 321.22789390769236, 167.79730670561128 259.81433941990525, 220.26903107709006 194.81398524264586 M59.90818958076245 381.4447753389262 C117.98352986082152 316.53672728469706, 175.16985367408188 252.10486762077673, 220.9105242135082 195.9710412834339 M65.23720814421058 380.60613280340857 C120.28830350269847 319.3913416138116, 175.33738591983857 258.64805649686184, 220.90817649929824 201.239214942465 M65.50949431125782 381.2266751410825 C127.59933448334644 312.0368047503893, 189.8274866852987 241.6056091134362, 220.92045131200882 203.59180969603415 M71.43187694156893 381.8746749268887 C127.34509230856754 317.7023638222357, 183.42916366254693 256.17430926344275, 220.09112195252547 209.26130318112956 M70.69169811314049 382.0413678574915 C107.70184000936787 338.63127216118374, 146.09573981552808 294.9741291434557, 221.19386171983604 207.69145102933905 M76.6256036755183 381.980910655377 C131.2184896798699 317.99877688826996, 188.06710779240984 253.24708960789965, 220.8768521197234 213.58715347785204 M75.45979118751907 382.07257444465944 C121.94252105670796 330.02187167795836, 166.62488220610177 277.33949627560037, 222.09725110788182 215.4681060737939 M82.84697787887572 383.1053841608478 C120.3299333276635 338.1568257878283, 155.73183476838545 295.6418198457848, 222.0425499214943 219.09960706675372 M81.83819722778019 382.03335992853624 C122.99366030266344 331.3179245556174, 166.1527764106379 282.11858536505383, 222.17957504099394 220.0760432349991 M86.7723414287468 381.3479628451414 C133.22978323830748 329.44668600914287, 175.43117001854603 275.46430462564297, 221.28852479204977 226.41644673824214 M86.9447276964967 381.8210134001147 C132.8138696057018 326.7305053707079, 182.10079574625573 271.575459440556, 221.43540895351217 226.34052469029726 M90.05154975733728 383.3925466758731 C142.8804364157629 322.7407319229915, 193.59987343231506 265.483643181968, 221.96548670077465 233.16344108413762 M91.53900368182929 382.28093582927914 C130.3403065785708 337.7218723685041, 171.32655953629973 290.86515945379585, 220.6754245582386 232.57375872675186 M96.95448912052859 381.93780374199355 C131.03753001600865 346.20109539069944, 162.99468280664087 309.407865479404, 221.96650000513762 239.87669629472578 M96.63172310149719 381.6992990770211 C127.36617149873368 346.89326261614514, 157.00277798114283 312.6926284651122, 221.4872372824815 239.38581096063638 M102.00345151649697 380.54097397110047 C130.84269025544714 348.9384714081399, 157.27657953529211 317.6932114263168, 221.39881466259013 244.3176644729879 M101.66682366246266 381.1778318811822 C145.7432994498398 330.9931138587183, 189.36544672503203 280.3077933864913, 221.99234667536567 244.70145316109623 M109.66595051103593 379.78919581993574 C133.991561083546 350.8013654030376, 160.38912205429165 321.47986152206886, 221.43697548892573 252.17895282566587 M107.78009285630048 381.554344085223 C147.13829342582983 336.86747810285937, 184.11744440174982 292.4677204524483, 221.44177460346594 251.83701079659204 M111.21104480397699 383.17516481613245 C157.0239851544699 333.3923392645223, 198.2694515328016 286.4866472183052, 221.18207243397592 258.9337256303928 M112.48894143362341 382.5233744784954 C150.39228180987362 337.79065650374775, 188.41668050114163 293.08253146600305, 220.90566619239507 256.5280382814757 M120.08281046111364 382.9344569164326 C152.33086155320882 345.16347612709274, 180.52411464246683 308.8701161015579, 220.37915378454372 264.4277371741335 M118.87837563600618 381.6610141544601 C143.32463186935266 352.90610178655, 170.12193405121292 323.2371189454782, 221.80320302973732 264.7088519144307 M124.77686868227732 381.9582051484691 C157.50489321719272 337.71258540980466, 194.108453697622 296.2866788341088, 219.57404907743205 271.0184604938525 M124.2900249640615 381.5250831524687 C148.8493607931551 355.56257385820305, 172.88825707585636 326.67236402166986, 221.87192607807685 269.8391586191404 M128.21385803326157 379.63042296898413 C166.5719451101031 340.3440466902136, 200.69347243447422 299.4543040718104, 220.27019201247245 277.71421611718296 M129.50811440936414 380.67995381598223 C148.05471619281724 358.8900095651067, 167.86729355555926 336.07492723130486, 221.13705858802646 276.23068468495666 M132.61596221389794 381.7406809056106 C166.7733522052971 343.0931104109333, 201.4107550883802 305.9874103516082, 223.6460336554585 282.7662050008668 M133.4484922225269 382.7967274343523 C151.93885646757482 361.54511696218714, 170.76789386310833 339.17878649963995, 222.44141930116098 280.8267087053402 M138.88038228997988 382.32142991509033 C169.58961067984197 348.77811242014974, 197.72755594789675 314.5296058516991, 223.43157020622152 289.5811851725371 M140.3446021451245 381.67805760103954 C167.59645122357617 350.41287893366865, 193.39034872849817 320.32236022128967, 222.13445021809298 288.3022382196428 M143.4558644613389 381.56067802505663 C171.2942624706774 349.1565223814641, 199.23043310130544 319.1943353695341, 220.6257562015647 293.3135046691586 M144.4365111777697 382.35832685539594 C168.24607054007447 354.90329646578846, 190.19546289029176 329.8361134039576, 220.6021298014069 294.8435426515479 M149.71617229376847 379.6393136922513 C174.9009552970506 355.6326336129663, 198.5300828024936 327.77225044382874, 219.65332742829094 299.00423027769597 M151.15688181203717 382.12847004088206 C173.3566374925918 356.39396111580146, 194.0658275361968 330.77795963304163, 222.23629588868687 299.4747820497391 M156.83661448710018 382.64378244430736 C175.4561926916006 358.0446512511241, 197.7091248097771 335.18958139120554, 220.52162383623178 307.72027627578234 M155.8199997985398 381.63615094684974 C178.1799193251984 356.1848997321864, 202.1324721630266 329.27108024890293, 221.4039686055457 305.3846358285681 M163.16751710712742 380.4034102379669 C177.00751402760218 366.22373288773156, 189.1392325457546 349.24094093850164, 221.53800274118066 311.14643737015956 M160.80774637885224 381.91058566675974 C180.80491929521907 360.96324964824055, 198.45448184696005 338.5953074840819, 220.9772635685581 311.7058357064956 M167.1107513536817 380.4030801008628 C186.76515092695428 354.87474239489126, 207.98262453465568 329.77103760744706, 220.18636659296908 317.4980653384607 M166.25862605358722 381.4627192399637 C185.04752077106522 362.28747252619405, 202.34336498298418 342.3142462270324, 221.02241965333678 318.61534234787337 M169.83714676356612 382.37526506995994 C187.35857766504444 360.41300763274745, 202.61215626339867 341.84908900339246, 219.84457617840016 326.11310196765055 M170.5976797853291 382.0647585901453 C188.11886370179144 360.8401842461913, 207.90579394793434 339.6799995181551, 221.32971219746614 325.11387830138494 M175.4433141235836 380.439156932223 C190.93387869833265 368.5471784314864, 201.77168606371058 352.2949466089905, 221.94127353427677 329.5912077946938 M176.50580791166203 382.0768012659879 C190.8491959757853 366.87552504719366, 204.3146557557043 350.32697892558275, 221.38277591353028 330.3525567407138 M183.10846838356568 381.23979496528494 C188.875763289032 370.9204051850518, 200.82736385105113 362.73351859138614, 222.11270486043048 335.93289084722346 M182.88909305819882 381.7734641818433 C193.2672291535111 367.66485259446404, 206.00599776062626 355.3982998485239, 220.32792780214203 336.9595102052117 M185.8118418593058 382.5400988758878 C198.6710420380071 368.1205291758733, 208.60913018250486 357.62287417544286, 220.92013372265478 343.13153958198154 M187.40871334151416 381.1234165561722 C200.1694015519441 367.2863675612616, 212.80857680056502 352.60045030581466, 221.50408035487612 342.8194235383394 M191.20921200063555 383.13354544166464 C199.32548574821226 373.1866229572443, 205.53948472171032 368.2499306706303, 220.72636882078115 349.0860995266011 M193.1699701372209 382.88955655332643 C197.6416687965952 374.28739234323854, 204.12117370491114 367.96110719397234, 221.1317693223453 348.17371052944867 M197.0063736233483 380.68149186935733 C207.60080215452348 372.525215631499, 211.9657600139566 363.5223157501865, 220.41317719161256 354.1931062180468 M197.90826031189366 381.65383464176665 C203.56079285262464 375.2854149585983, 209.4699164333161 367.1554049180307, 220.84306691713377 355.40004685222294 M203.83566667727564 381.62585243659896 C207.58199199748975 377.8887950943414, 210.1188966417959 372.71427709629944, 223.53810712195207 359.4858139432834 M202.67810399114524 382.9174302358447 C207.06838054408908 376.37967449873946, 212.10583189043192 372.79017133801744, 221.65090472682584 360.33899880534574 M210.5408058219668 382.9567622797132 C212.3154246054091 378.15347505561255, 217.7431049333042 370.7014097839759, 222.4328313537568 368.6993456768234 M209.0299907196392 382.10095782340846 C212.93563099990365 377.2442198536047, 216.96492957616823 372.4593264910192, 221.88856264088975 367.60430687138705 M214.8354171900665 382.28146625937654 C216.46064421481245 378.8267581321155, 218.3396476374918 376.70550474246477, 221.41430293949526 371.91430116261665 M213.78446685770803 381.8579729832126 C216.14579512477923 379.06794425342787, 218.8303903896233 375.71219561593097, 221.8197788342295 372.64121588024625" stroke="#40c057" stroke-width="0.5" fill="none"></path><path d="M-0.9451132733763827 1.728052848621644 C56.37417151651344 1.568966550909563, 115.82830415707313 1.6417056612751924, 221.04894121409595 0.9828336238103285 M-0.17479426952837032 0.09338359603480621 C54.441030087509304 0.49388889215683796, 109.55278009251528 -0.44776618072426455, 220.13917326605718 -0.1450501552012749 M221.18685603166878 0.30210468198899176 C218.38271576580036 145.70516462659484, 218.45773261663544 291.07172324921737, 218.95842453461347 380.3205103259826 M219.63578159886126 -0.251641369270999 C219.4185748975848 108.46812434168785, 219.4889209097569 218.66223884443673, 219.56958443945473 379.67897691750255 M220.2903148686024 378.5192863044136 C177.18260339605962 381.5991055261919, 130.06562334791715 379.8905462382268, 0.6499878916428908 379.8033654939852 M219.6236246180585 380.1829703000045 C157.50826372042363 381.13947914072054, 96.74520476592306 380.1280517480839, 0.8050863977006859 380.5443074098143 M-0.22833273730222134 380.43183768447284 C0.3522926616288161 286.8231529827083, -0.07399605966439479 191.84199431491737, 0.3092756898825988 -0.10897367707248777 M0.31386527444245294 379.45336261164573 C-1.3950729073081538 263.5073641715202, -1.3237725374166294 145.78176207567478, 0.4028622428816743 -0.21597385869892313" stroke="#000000" stroke-width="1" fill="none"></path></g><g transform="translate(10 10) rotate(0 50 16.45569620253164)"><text x="50" y="23" font-family="Virgil" font-size="25.31645569620253px" fill="#000000" text-anchor="middle" style="white-space: pre;" direction="ltr">Browser</text></g><g transform="translate(570 10) rotate(0 68.5 16.5)"><text x="68.5" y="23" font-family="Virgil" font-size="25.31645569620253px" fill="#000000" text-anchor="middle" style="white-space: pre;" direction="ltr">API Server</text></g><g transform="translate(570 130) rotate(0 70 70)"><path d="M21.902000363226563 19.03911844739903 C21.902000363226563 19.03911844739903, 21.902000363226563 19.03911844739903, 21.902000363226563 19.03911844739903 M21.902000363226563 19.03911844739903 C21.902000363226563 19.03911844739903, 21.902000363226563 19.03911844739903, 21.902000363226563 19.03911844739903 M8.281254072539422 40.15711657660785 C14.045062210062605 33.40431187835208, 19.49813726890714 30.902179427595478, 30.771156533745625 15.175196164265852 M8.46973491353533 40.315792290072466 C13.745797051607648 35.29560794908237, 18.557018831717 27.75072137133804, 31.391349823338487 12.525478101313691 M6.977607052075662 48.372028038706006 C18.94016679902147 34.67986246874647, 27.36258095132621 24.11732369902469, 41.48268417921619 8.424741265262433 M6.258455840173163 48.223878293167175 C19.257836945456795 32.786635445178554, 32.849852464576756 18.822384172662563, 42.41782727931397 6.717326084981629 M6.36666709337948 54.249518083567835 C21.508961391583185 36.28354007808989, 40.552666903470886 18.299656176027078, 51.36007914878582 4.016083914155736 M5.075304437099081 54.88273677245817 C18.161637696775895 41.15546914307628, 31.344015195713354 24.78438793259042, 51.66122987494027 2.862786115447655 M4.103829704263376 61.38614432838084 C26.353970623271543 41.2489613258984, 44.092554571227716 18.371678919788103, 56.141532084304984 5.670088799024338 M5.493950137906836 61.88959673185171 C24.368568883144064 41.55624998923585, 43.89402440866629 18.388388339014803, 57.18622530284911 4.056441142509097 M3.2702716425398464 69.26518314033251 C16.54839630099289 54.80922424343851, 29.129960072504275 42.81329045524192, 63.33266419651974 3.5675339754963424 M5.093921751190173 70.67957780025404 C24.891082802925162 45.75652856754051, 44.705950354113824 24.442333878105416, 62.7174899495678 2.4914593585128095 M1.185832858040392 78.6410487970559 C19.99827601773638 59.29268738057297, 36.30592955600647 35.38370042084045, 65.86640571425207 4.563592890982015 M1.085989402561843 79.09760939201695 C26.705622051251865 49.53256933310513, 50.34291347570108 21.27516099975771, 67.11208734469957 2.861576222587807 M2.750665811511041 83.1124881041791 C19.174063778447408 64.95538601110457, 38.4150468870036 42.91505511978798, 74.13252714531447 1.2704481626688562 M3.4663138535491242 84.15912532448729 C31.23886688868963 52.24958122232524, 59.076671111447226 18.73482835768462, 74.20149942183818 2.6312082386403404 M5.449054894802281 88.09177199978072 C23.079903646527256 71.3728305540503, 38.43853683783584 52.105019944970934, 76.79052121852895 1.4417107379671563 M3.8327659217837535 88.20675542246241 C21.060184264584834 70.05633192296054, 37.10614724440924 51.02590239504347, 77.41700846058687 2.60737211579945 M6.659242836736098 92.113761431271 C27.652419113450094 65.66535893906422, 50.67349449670078 38.51069837325483, 85.51883899968902 0.8285815736188411 M6.507252886868969 91.40689139507131 C35.75652963474835 57.123344083885435, 66.20330861398234 22.2869026146643, 84.35143320252041 2.983346447525811 M7.810253616134489 96.97503609606021 C34.412756974281876 67.04901553091054, 61.72891154374431 35.410435733677645, 87.89141765963564 5.092528277479751 M6.505041403408015 97.07631557644301 C37.59836444556978 61.294087400317245, 67.0050814983956 27.723309266640186, 87.448156619261 4.438848353394015 M10.475069548790955 101.34476570089032 C30.365008469950624 78.37753357231301, 52.43389962175671 53.229367775303544, 92.06327076416235 6.1331893062918255 M9.440434587975645 100.48057218503823 C42.06973472185045 62.383357321755454, 73.78015735795269 26.28130490520742, 92.49921620238345 5.65543767686475 M9.903218084536995 105.9226770233944 C39.86485972487912 73.23598954011936, 67.82765479578553 39.38099335963409, 95.64701604209111 8.001050607465352 M10.871858816184606 105.17943438520878 C41.78727638591038 69.19416022667093, 74.12445389042367 32.252027214151, 95.33433173149095 6.416693627067055 M10.394244039166132 111.27637727031436 C44.02349145083472 69.8833662080529, 81.48243091700208 29.37751591199647, 99.11817053022497 6.998897717965043 M11.487835954609672 110.05172764541533 C31.88825738158817 85.50173838229432, 52.40634772005337 63.88169878855401, 99.03870041916781 8.897166877684391 M16.14241444948135 113.48990197861494 C41.72749764037579 83.24619944879743, 67.64920580811464 51.017413657730955, 101.97197348637641 9.820944504978407 M15.764188215835077 112.13137763934137 C49.181127985091095 74.76324416703665, 83.0304474000661 35.03410681759166, 103.92231982400776 10.989008307623017 M16.049600515314154 113.5481341759292 C39.98030679539325 92.22085490487945, 60.28637372439988 69.48383852006894, 104.84838638936742 13.427833165915715 M18.589420100473575 115.17932940633871 C41.20330242005533 87.58582470065548, 64.09719963700724 61.81499745066533, 107.45748785061403 13.364469001011955 M20.474513715486523 118.19296605966741 C51.77576495839389 81.07558300919871, 87.10219975740725 41.965669508902295, 110.2813290549915 13.902795907518936 M19.826454513128397 117.72720903053636 C40.884512315817574 96.42461393233849, 59.8651207553854 74.23953985982524, 110.84053886556138 15.519561926311923 M24.66982386579197 122.28887983657152 C42.50624582537422 100.08575785733126, 63.88312452036176 74.80518803995054, 112.88732546207066 18.854912427198315 M23.562250820374302 120.63040448039503 C42.078255984893836 99.80966732565868, 60.90204224507793 79.18900211452558, 112.99298952345308 17.364819417651916 M26.970804945052507 125.22620520405181 C51.55239535563743 96.92749170520436, 76.80746572148462 68.40582457360806, 116.11473986841742 20.275271592141365 M26.10895067681456 122.65882309004374 C54.71393791128881 90.50597193470907, 83.89750678571332 56.89427626583314, 117.12327488288287 19.268954853938197 M29.544571211080623 127.77728102929575 C58.76519985354867 91.8011263873343, 87.54771062802524 55.5959509526901, 121.05665875285374 19.921390599758368 M28.5656141410429 126.54055323838872 C55.190218219329225 96.06886585486883, 80.07388030850507 68.38781100354194, 121.35213034845398 20.6307818192998 M31.859018171688803 128.72616492949086 C65.38487152587724 92.05226055789684, 98.47180744982819 53.09851158308629, 123.20012693117312 22.173376656791255 M32.099660646653064 128.77907392933625 C67.25792479176505 91.07574596962031, 99.54691244897447 51.70527004973579, 123.27432778674117 23.9228757821974 M36.807822584689575 132.74363327182468 C58.264975329483974 106.41470379401503, 76.48195277509855 83.22462796700093, 124.64661629522607 28.701313201318648 M35.88436900223883 130.7157547917926 C60.49788626845809 102.16187605795507, 86.31261026947635 73.67333343604642, 125.99164426537618 26.546460317428377 M38.14756051587644 132.7527620130391 C72.80118853436733 93.49312840918873, 104.37525513645662 57.438770991992655, 129.42185221878714 31.77432577963694 M40.348495449374944 132.0829369192184 C65.3317277108034 102.9877218836533, 90.79681230415069 71.76929302171308, 129.23518845891482 31.327972983007868 M42.68635316508089 134.33218418076717 C69.52354356092778 105.66358693631409, 96.59882628905527 72.46946724398151, 128.41598715168774 36.701516169379154 M43.17741948867415 134.5946903509655 C71.25208429842763 99.58954689575992, 100.4954876269065 67.63084514523311, 130.11807424296975 34.14749944328765 M48.34522104011539 135.06283239219647 C70.99205232221085 107.6416923307759, 92.42472787830738 82.90310499184729, 132.06919090972144 38.15986657728729 M49.186998053730164 134.48105659094017 C72.7656161728882 108.40508448779752, 95.82141903575967 80.68152756448906, 131.6335109841158 37.45417766672847 M52.97096589879249 137.91235801451438 C70.507652659666 114.67702772069111, 89.30640857700851 92.4696852920022, 135.2481784427197 42.106916280994355 M52.94894745313679 135.05996776804858 C76.46122100461115 109.34621904559832, 101.41631402689056 81.31398570915431, 133.34383130796564 43.36637456768209 M56.461170748924665 135.1101311649085 C74.88797490293251 117.11926299672308, 93.71835830313967 97.12218157485457, 136.61968206647606 47.618084987242334 M56.72834337048774 137.79974663619706 C83.98024248160758 105.79614891761409, 108.48153373609591 77.63750900808057, 136.5664633310941 46.696509364609234 M62.88919984832441 140.02224071056628 C77.29665465275895 122.02310840379215, 95.47947145421367 99.93015294282401, 138.87092020183147 49.55405905388702 M62.421120864376775 137.38160657429182 C89.09302423944055 103.43014286952595, 118.11911344229576 70.38571157963695, 138.40689940012336 50.80593980208446 M66.62919870480425 139.02649426867524 C81.59317134757806 119.82307642129285, 97.1252540055323 102.17251107563817, 136.73912863558897 55.64340526789315 M65.49157436839766 138.76215158623913 C85.73828837999805 116.11290135608095, 106.66610659293781 92.632311055139, 137.60072735263773 55.87507592879124 M69.82503504718615 140.14212778664563 C95.40102432592226 111.30074258039048, 120.60793829385202 85.02892392906651, 136.51232440455152 61.37640916622546 M70.25379866215361 140.990585881168 C92.49212148622115 114.89713247366515, 114.02367880180327 89.13147471261918, 137.8268944012214 60.98471841841307 M77.10771202823516 139.6218384805511 C90.77090610756983 122.68078996334792, 105.74545349367543 105.23774547697246, 137.49824676653168 66.63478461607144 M76.40160207419093 140.9882468118708 C92.03532823369913 122.8005116622151, 107.35349585037909 105.16151464469453, 138.9891481044682 67.93326814985619 M84.53554181879224 136.39271895824749 C100.1655775018246 118.32305621694161, 115.52674827789735 99.83369448387796, 138.8054162293419 74.81196423461859 M81.76118007613184 137.17703899792212 C96.22860515817688 123.40330606439585, 107.73322498557896 107.27508067624436, 139.8095953959718 73.54451662702684 M87.6236768686889 137.13887099736783 C102.47387847921583 119.84253942311366, 113.16551158886566 106.61233574902668, 141.4681345507947 80.6880993890544 M88.13314654358908 137.7495481036738 C106.10420534381069 116.91448714678347, 122.22674070149161 99.09407896846305, 139.766202584326 78.73014597883127 M96.78122796472816 134.66698638487682 C108.82453264067026 117.21365709868851, 123.23819834816669 100.58373469237358, 139.22754376769308 85.55035061634362 M94.54215181414692 136.2221216778092 C109.52433612084778 119.2876128255866, 123.08365029765595 104.65268934226421, 139.68635438211504 82.79751937895298 M100.81202811472248 134.80018523796198 C110.4512233647746 121.26819699692356, 119.9692456468582 113.20477587070215, 134.15968173198246 97.14324090679254 M102.55014657139908 135.51620747423468 C112.2316923905225 123.16282452132694, 123.51578878946323 109.69245002906688, 133.1874094420656 98.58753432941701 M35.50806014668 131.39324820331294 C35.50806014668 131.39324820331294, 35.50806014668 131.39324820331294, 35.50806014668 131.39324820331294 M35.50806014668 131.39324820331294 C35.50806014668 131.39324820331294, 35.50806014668 131.39324820331294, 35.50806014668 131.39324820331294 M42.703882571707496 131.97643154635537 C37.45239327067407 128.2080973522047, 31.65997205075747 122.87201406620115, 12.912631065418388 105.60857554670179 M43.19397286924256 133.12518386132527 C36.12013306469018 126.86779822953798, 28.925551296859943 119.33552756169289, 13.618390339260365 107.31448317277932 M52.92301972234263 134.98473469547886 C35.71943839136728 119.86627011106184, 18.291138044263015 105.85060337182429, 10.966630646745152 98.2125891777157 M52.72951323004081 136.23284479424316 C45.144290912509675 128.50156626513223, 34.993720906113424 120.4464599910281, 10.452036615247316 98.24409474566869 M62.23855045818285 140.0077892789285 C41.15499704943262 119.32364866709415, 19.764650806775805 101.36035024250366, 8.77810546381226 93.97361932673381 M60.7954395619084 137.60171521507607 C43.98178817221425 123.03520663347798, 25.408895651631234 106.08998099081663, 8.417397094870118 92.21994212061988 M69.07379487659509 138.9901911059108 C53.80008511012663 126.85271374347826, 40.07389514182784 116.73443746881077, 6.852406863986673 82.56673055296258 M68.47358026299352 138.03057794474927 C43.9810768642546 117.39130637831066, 19.960409578333824 96.2681019572365, 5.0240345512769835 85.20682374355809 M72.4075639051691 136.04431376462279 C53.738189810252 120.7756732883648, 35.790581296934306 103.04200124369765, 2.1300866050808906 77.3658242235895 M74.41883268666717 137.9996654581785 C50.79703388328075 119.71728124701556, 28.964396653546224 100.7954294576768, 3.5467902930616617 77.06954674338957 M80.16328804238569 137.29348570922343 C54.28453331814411 114.69867184156726, 25.118385978211002 91.83879686938594, 1.1307351762440518 69.94287462974515 M79.06079188219141 136.70133697124152 C59.38419995460799 119.42360372644477, 40.60962587959894 104.42818000199037, 1.982122485154541 71.25966304796364 M82.05105029605735 134.15457705690022 C61.34787229581353 118.18352601824954, 36.927936290083665 97.47623562027519, 5.247918934174791 66.78992549366446 M83.25828353315998 136.51016523784455 C63.38222470190992 118.74949300915372, 41.96408360370001 99.74769091859608, 4.155543285035506 66.72496589123399 M89.9567149239966 133.1811766748407 C67.19138544225923 116.5834716033176, 43.91852848298016 96.59910673946872, 5.7042429669083745 60.34709346152545 M88.50099269816664 134.0136136368939 C58.49249987653387 109.35136982929656, 28.538676850363387 84.17291927441974, 4.489181706521073 62.1249933060974 M92.06692743401592 131.93859218023238 C67.46688168875471 111.72484869785157, 39.12691086954744 86.61913382231141, 2.8839648718117665 58.973036842534604 M92.84696381080514 133.07453617229578 C75.94146519498813 117.97806135423701, 57.666011684251416 102.42504986140479, 5.1468973977594565 56.98899686347908 M99.7488241641506 131.5349089692532 C64.12677964964195 105.72599151602611, 30.387984232591094 74.71013287250771, 4.986252236920237 50.756309782869934 M99.614810259892 132.54973650194694 C66.57597455629167 105.47587496549963, 35.942833956634345 79.2520361701107, 4.500038122567176 52.714795846275806 M101.14677480132204 132.55963604312868 C66.69790636823923 97.33630568571205, 27.158590931384396 67.49447566676281, 6.3766347398235155 48.110067120728424 M102.79295690812987 131.41611376379163 C69.51070849959493 103.44520461705423, 37.19960651468186 74.15041075300229, 5.291391859315212 46.35098210440331 M104.36389734401104 126.83141435601783 C76.5090451915891 104.1081963811037, 48.3914004789492 76.90758394255658, 6.994971209225188 44.23947758925961 M106.03365505478081 127.70587092370761 C83.26750197029196 110.02418948168317, 59.22542293957593 89.69001114126206, 5.855653862488399 42.25183325772987 M107.28525271980736 126.05636749611766 C66.88246633590583 92.761854426573, 30.651898230077848 59.726447723890374, 10.17864424249221 37.800074497669975 M108.28867705321584 126.35236545661063 C76.75046617556283 97.12375144290885, 45.01435624406147 70.72336470904794, 9.755121280234944 39.923163377180735 M112.98581184696903 122.29551488859664 C80.65568624706563 95.85432949893445, 49.09952839906395 72.69742168816735, 9.315817686991537 36.709109905166 M111.02978337247421 122.84502254938792 C74.34008229983758 90.8663516079294, 35.230402847734524 58.513340064653946, 10.245450635703051 35.02117715868113 M114.57248857286301 119.2473585926613 C92.11377386855438 98.96856017085268, 68.35264722484133 79.69873120171141, 12.989274960981215 32.64479073691621 M114.90325553570416 119.69942189796475 C89.49038231685375 99.14225887221957, 65.19085135589705 76.3829122592649, 13.231996147932017 33.03920603911831 M119.34681631574733 117.37135553348014 C90.46066537669155 90.16552999035201, 61.55797848969284 65.52335482959964, 17.063742411828198 27.67280655212708 M117.70507276194496 118.76826993922839 C90.09428901033897 94.27469425907263, 62.919015175983475 69.68352583226758, 15.169633090070047 29.121735964417535 M121.64698100321174 117.17050429925017 C82.76241513456606 84.30745641689674, 45.6109547444007 49.30596587727676, 16.09385637756776 26.713742746976628 M121.0354449045676 115.71148664809458 C93.65187913957536 91.49271787358995, 65.32014006320482 67.11829354037147, 18.283224850933664 25.719320592475547 M123.23694981284595 113.03452222816834 C94.6179646027612 89.66078939585005, 70.1647792379826 66.03426984361175, 19.185034446235175 23.44990346764285 M122.50044119194305 113.02688262447903 C87.27859428672322 79.91950576298638, 51.77092495971007 48.77766642379412, 20.24099419433939 21.682904206189104 M125.695599912908 111.08302249540318 C92.95141514554942 80.41636759500301, 60.71428569796346 51.6882821266733, 21.854346715197394 18.232134523332242 M125.9136189681106 111.08083618026902 C89.5515764017811 77.58437364890958, 53.1261629447563 45.885859054325, 21.82789451843543 19.358144626483444 M130.5040418205421 107.79204188117072 C90.00628818613413 72.96572521497964, 54.446674858989226 41.27483933309644, 26.193192432935234 15.203295618203818 M129.19584705099572 105.92232110739931 C88.88932186634665 71.958562894951, 49.64271501861603 37.21475526369652, 24.920786497483846 16.896385444236337 M128.71771520400625 104.4296310606394 C92.5151556577296 71.11282574034848, 55.76395336910724 36.97310004441832, 28.199913777038425 16.26872909045457 M129.85990153463763 102.90599696775712 C98.91537255493775 74.99154711870443, 66.44190294323732 48.193204842967205, 29.633551859855622 15.412624759363524 M133.80842182111303 98.33844140099674 C108.74174439087457 81.08767028446174, 89.92848427914845 62.7970290873895, 34.16892459487392 10.93943699929099 M131.66499872763018 99.16229589024871 C105.65228611620714 75.26111369387263, 77.16050113730218 49.99005098162684, 32.51872212869896 12.016192267790245 M133.29874467967483 96.12284301943029 C107.99247147259767 74.34796760185274, 80.77989311406722 49.156962789459236, 38.58925830469977 11.487376269881587 M134.063714313567 95.97204062878038 C114.75449878987085 76.37201575280226, 92.60921271601092 58.616385828826786, 36.27852652305316 10.15354440640376 M134.1323384572815 92.86786575413697 C97.36113978390398 59.231666614221865, 58.903778605060836 26.94011933389497, 40.23189125388292 7.5719864614328465 M135.3847737708192 91.17288553326779 C106.13195702418314 64.98370462088312, 75.29382132685001 39.66128824620323, 39.66471531606642 9.422292121129306 M135.81776782219097 86.63843528028535 C106.75775681611128 57.544005643918865, 73.52331965813349 32.33761530325957, 46.312419360681425 7.36366199911329 M137.789390693426 86.84605266559826 C103.63272805309411 57.23476448249161, 67.59967688377725 28.264030063367365, 45.45373647677804 5.882173098854153 M140.02524995199303 82.41801893607239 C108.58545903632428 58.080388533581214, 76.59664557975029 28.052772491565044, 48.57838147246223 4.170279942129394 M138.68050930975835 84.44247762568752 C115.54817022217955 62.51269460409364, 89.37072097034243 40.61443591150333, 48.34655902833622 3.869079535503527 M139.73049285450017 78.60786183868561 C112.90343530937832 56.58850587086911, 87.44810572033532 30.605445099960527, 50.71722642726063 0.9046131866591764 M141.65914280341005 80.46954566744182 C114.66328236526743 56.21776751046536, 86.55761317174111 32.634925795892045, 52.1891401095575 1.649971338974197 M142.3208570468566 76.27775076834098 C121.49040921893214 56.81355917471585, 101.71662392808872 43.11355549560647, 58.48131305378018 1.9593304658521546 M141.44303499230654 74.92935558279589 C117.922253366104 54.98913849575479, 93.44214010954177 34.97394623613837, 57.90992497492669 2.48537612913443 M138.51274177754306 68.94554542919751 C114.71386824371415 45.281758991494684, 91.53537348513836 25.8300106712302, 64.75639520871954 1.209288001943296 M140.59654655070983 68.28575096262749 C125.04537703610544 53.92636134018557, 109.18107652208461 41.313909638553085, 62.4008320319237 1.8191808899379431 M142.4389083845949 65.20370621743322 C118.77851975021107 45.79398894584442, 95.6236957177592 24.219648810350606, 67.00726548011397 -0.27258505888938345 M141.4304783674365 63.278347964833394 C125.35293842717616 48.3531056274481, 109.869655680883 35.12105344025616, 69.77539654436504 2.1820174042815026 M141.01877071537902 59.93823519225461 C117.49026928785055 38.16278379883177, 92.64583763638853 16.062434517348997, 76.11978812577598 1.0673001505416053 M141.18486196563472 57.328976285338825 C121.74792287128736 41.2440091945863, 101.71525232335021 23.493325125787337, 74.02330357084446 1.6613490510713476 M138.34752386726242 52.171853162868146 C124.7930841167607 38.644361261233186, 110.45292665653399 28.655638708614212, 80.03531823374085 0.4503102764142639 M138.23058824345273 49.57235624506903 C119.24168969764551 36.38091529971214, 100.48862287004306 20.68976122450808, 80.4573071251785 2.2760888632042295 M130.57585376783481 41.59505871747083 C116.66897080002167 25.450887170653914, 98.13830530084108 12.826802444611669, 85.34744424092997 0.7042355699540863 M132.76161705426148 40.57465781893975 C119.82306175389624 31.115444818533703, 110.0489485055284 21.901117121189298, 85.1224726950698 -0.8972546463756075 M127.80848507602255 31.72142336820267 C119.511304998203 25.496482921174522, 112.0478140156506 19.077105791093, 95.27588911782914 1.9155294962346332 M126.50602510776858 30.676295780809745 C116.90145651061307 22.33332752858414, 106.34343416190947 13.612921322794726, 96.5825784267854 3.115162124124147" stroke="#40c057" stroke-width="0.5" fill="none"></path><path d="M94.90764336023082 5.119735057396795 C104.8772733380965 7.554169280799194, 114.67044850430726 13.846526860854869, 121.7369816471842 21.416940540823035 C128.80351479006112 28.9873542207912, 134.37432232406616 40.33967925473393, 137.30684221749243 50.54221713720579 C140.2393621109187 60.74475501967765, 141.47346830782374 72.33446906467202, 139.33210100774176 82.6321678356542 C137.19073370765977 92.92986660663638, 130.92805517857545 103.91139786295663, 124.45863841700057 112.32840976309885 C117.98922165542568 120.74542166324106, 109.91533735162517 128.58352551036478, 100.51560043829241 133.13423923650748 C91.11586352495965 137.6849529626502, 78.92031655486657 139.94503242239963, 68.06021693700399 139.63269211995498 C57.2001173191414 139.32035181751033, 44.85826200408298 136.29452780126908, 35.355002731116876 131.2601974218395 C25.85174345815077 126.22586704240994, 16.794125806570264 118.31751092821277, 11.040661299207343 109.42670984337758 C5.287196791844424 100.53590875854239, 1.9115921362166854 88.37790021483808, 0.8342156869393591 77.9153909128284 C-0.24316076233796724 67.45288161081872, 1.069375563959182 56.45945356820924, 4.576402603543386 46.651654031319474 C8.08342964312759 36.843854494429706, 14.227140492237588 26.27993066533194, 21.876377924444583 19.068593691489774 C29.525615356651578 11.857256717647608, 40.24006902079037 6.208308938323169, 50.47182719678535 3.383632188266475 C60.703585372780324 0.5589554382097801, 74.87292553216824 1.6567417825081432, 83.26692698041444 2.1205331911496046 C91.66092842866064 2.5843245997910658, 97.10787202925678 4.834388454202315, 100.83583588626259 6.166380640115243 C104.56379974326839 7.49837282602817, 106.18762645582476 8.89568658982044, 105.63471012244926 10.112486306627169 M91.44284095233871 4.25498302773363 C101.2623646516496 6.484658102883191, 113.56464597832873 13.572238584374762, 120.94106941895288 21.138770131705776 C128.31749285957704 28.70530167903679, 132.8346598558921 39.624146389323926, 135.70138159608365 49.654172311719705 C138.5681033362752 59.684198234115485, 139.9428550881006 70.99320323998172, 138.14139986010207 81.31892566608043 C136.33994463210354 91.64464809217914, 131.22782788776672 103.03184232867024, 124.89265022809244 111.60850686831192 C118.55747256841813 120.1851714079536, 109.24713911778998 128.28497980622916, 100.13033390205628 132.77891290393052 C91.01352868632257 137.27284600163188, 80.61113328727288 138.78621364938493, 70.1918189336902 138.57210545452008 C59.77250458010752 138.35799725965524, 47.17148533446833 136.01462599053767, 37.61444778056021 131.49426373474145 C28.05741022665209 126.97390147894525, 18.788612331088164 119.75642875864153, 12.849593610241477 111.44993191974285 C6.910574889394792 103.14343508084417, 3.493711893070709 92.24517830618365, 1.9803354554801018 81.65528270134934 C0.4669590178894947 71.06538709651502, 0.8841147228950952 58.111243516206954, 3.769334984697835 47.910558290736965 C6.654555246500575 37.709873065266976, 12.039877499454882 27.82149480139853, 19.29165702629654 20.451171348529414 C26.5434365531382 13.080847895660298, 37.13613818369143 6.901091979668443, 47.28001214574778 3.688617573522265 C57.42388610780414 0.47614316737608675, 72.45255392675004 1.4142984173058626, 80.15490079863469 1.176324911652344 C87.85724767051933 0.9383514059988253, 91.61202986360425 1.7859335248822223, 93.49409337705565 2.260776539601153 C95.37615689050705 2.7356195543200834, 92.01666243630436 2.925570957226185, 91.44728187934305 4.025382999965927" stroke="#000000" stroke-width="1" fill="none"></path></g><g transform="translate(606.5 187) rotate(0 33.5 13)"><text x="33.5" y="18" font-family="Virgil" font-size="20px" fill="#000000" text-anchor="middle" style="white-space: pre;" direction="ltr">Memory</text></g><g><g transform="translate(111.07671434924941 111.23707276675106) rotate(0 209.26718200064266 -0.4070070540262378)"><path d="M0.25077008530497547 -0.677212243527174 C70.2161507578427 -1.2465548668354756, 349.671713150409 -2.4334500630945, 419.6110783505346 -2.395661491334442 M-1.0767143492493778 1.581647383281961 C68.8066823931178 1.6360114980284117, 348.90680621321775 -0.8062152225431088, 419.024124054294 -1.4664953205194364" stroke="#000000" stroke-width="1" fill="none"></path></g><g transform="translate(111.07671434924941 111.23707276675106) rotate(0 209.26718200064266 -0.4070070540262378)"><path d="M389.7965675416734 10.189513576143636 C396.9102611246586 7.5963937806124395, 408.157583514298 1.6297311968141228, 420.8377710376493 -2.912961777618159 M389.95524325513804 9.624878226706041 C402.10204889628244 4.736078371407622, 411.61723056669825 0.12074234968857311, 418.18805297469714 -1.453578541373838" stroke="#000000" stroke-width="1" fill="none"></path></g><g transform="translate(111.07671434924941 111.23707276675106) rotate(0 209.26718200064266 -0.4070070540262378)"><path d="M389.6149571345057 -10.33089139173767 C396.95488229651323 -7.078137053411556, 408.2539454051215 -7.198545982875085, 420.8377710376493 -2.912961777618159 M389.7736328479703 -10.895526741175264 C402.14901191285185 -7.96956542143975, 411.7333658036145 -4.769038926347139, 418.18805297469714 -1.453578541373838" stroke="#000000" stroke-width="1" fill="none"></path></g></g><g transform="translate(130 70) rotate(0 105 15.5)"><text x="0" y="25" font-family="Cascadia" font-size="25.53191489361702px" fill="#000000" text-anchor="start" style="white-space: pre;" direction="ltr">DELETE /albums</text></g><g><g transform="translate(530 107) rotate(0 54.18529860451815 10.958253999060389)"><path d="M-1.1243500761687755 0.09747325703501697 C13.880198497325182 0.2283310505251089, 72.69504077707728 -3.919983036071062, 91.13159033730626 -0.0028278894722462145 C109.56813989753525 3.91432725712657, 106.53219914709528 19.51836276973287, 109.49494728520513 23.600404136627912" stroke="#000000" stroke-width="1.5" fill="none" stroke-dasharray="12 8"></path></g></g></svg>