<svg version="1.1" xmlns="http://www.w3.org/2000/svg" viewBox="0 0 820 267">
  <!-- svg-source:excalidraw -->
  <defs>
    <style>
      @font-face {
        font-family: "Virgil";
        src: url("https://excalidraw.com/FG_Virgil.woff2");
      }
      @font-face {
        font-family: "Cascadia";
        src: url("https://excalidraw.com/Cascadia.woff2");
      }
    </style>
  </defs>
  <g transform="translate(590 50) rotate(0 110 103.5)"><path d="M0 0 C0 0, 0 0, 0 0 M0 0 C0 0, 0 0, 0 0 M-0.14772596877532695 6.699899533440464 C0.880094951399747 4.597440459649649, 3.117761795394185 2.6983233504065613, 4.847307361247486 0.5129892166552358 M0.07244092378300931 6.37597021688997 C1.5455742867162452 4.275807422311745, 3.354504110662484 1.8925086015840749, 4.641435630949682 0.4786960113642031 M0.191756478799473 12.457166722833692 C3.9485123786563 8.04217526272268, 7.427424209491678 2.226044293181252, 11.80447023357166 0.48125563516167436 M-0.16193377439867385 11.47495459508854 C3.304310623232977 8.801331758988283, 6.601605527103722 4.336921338509534, 10.00474674100889 -0.3714538623497127 M1.7284761080005904 19.430526177306348 C4.165808691138102 11.231686298150846, 10.07943976683092 6.015977242915593, 17.32672285614856 1.276954483885782 M-0.1565737845888595 18.18716099197107 C3.8422061027540746 13.759671766870433, 5.82670129873148 10.957973021727554, 15.60927675431915 0.436173076455014 M-0.5801343058981683 22.29727717646873 C7.839909725384958 14.644784114947628, 17.188918918784072 4.369214909823068, 20.98654393320706 -0.7405783669859645 M0.9835737480036233 24.04874706984973 C8.970910868633826 15.337934521794773, 17.183278862324965 5.456702516233559, 22.13129457486596 -0.4823548501193997 M-0.9620820385823592 32.478411065180055 C10.589819093403102 19.234862994223157, 18.017924370764653 10.682937052553747, 25.79189976179263 -1.270022273621267 M0.6767591601749317 30.9819162783662 C5.893063179428863 23.92172092461981, 11.393817209436875 17.838179941983878, 26.896718927335353 -0.5440823608997523 M-0.01606880324897375 36.663432130405056 C10.815076482130335 27.491016299974625, 20.80965708526707 13.266958986222672, 31.882178907698787 1.3538862207218294 M0.26403903950932417 37.74910991620396 C10.789064033425158 25.241558151359932, 21.090096219180353 11.61084360804821, 31.330399803302086 0.42473788757466124 M-0.540015063094998 43.05356340910845 C8.82515799036079 31.361868684383737, 20.195076020520823 19.69808142689685, 37.69831507075702 0.20196764367637243 M0.9048293485910648 43.138159907046486 C14.18613677001196 25.235010437120824, 27.910745132558095 8.612279161355126, 37.4888104533789 1.2045821846556386 M0.6257628817110472 47.500875428923294 C16.04846261101324 28.328513847494666, 34.5205186755428 11.553608115658179, 43.35625931676083 1.5879229519843108 M-0.45377166196711727 49.28891754024558 C10.053047771931833 37.280148102185734, 21.6590480208385 23.65906567421963, 43.246019619140554 0.20747912380387845 M-0.6840339030373244 56.10031914659153 C14.1858798745737 40.03228679752276, 23.868775518105586 24.552217897574195, 47.523507845541715 -1.018989826721306 M-0.5470702505904583 55.47278640926193 C19.303937494061902 33.63114003820951, 38.355974672796286 10.643954634137138, 46.98271930119979 0.5771862443711804 M0.9168407824913771 59.10240258974622 C10.862371744560393 48.70947440334578, 22.98046400740329 35.70878935182694, 54.79257422289318 -1.1566322356985204 M0.8962505833337815 61.19289905344735 C20.9367907927439 37.73808669028318, 41.143537047992204 14.148274934216197, 52.772196991131366 -0.7859866101817481 M-0.9164085248998433 65.50522379535208 C11.248504150824408 52.153087237781406, 25.694771403960058 39.96998778126607, 56.557517148646724 -1.4573087473142898 M-0.31595569761014275 67.96364989648531 C20.699620998092072 43.10095266297651, 40.96351004989987 19.259339221407593, 59.06936343954803 -0.12500065050311449 M-0.10279603840798046 73.19359955037383 C24.002610875557718 45.92072533153364, 49.67058109156984 18.819405859669246, 62.387412688595845 0.189556595173336 M1.130023744162024 72.63732398705928 C21.902073222222562 48.569584897841835, 43.58196215794989 24.535095795403812, 63.89672488802452 0.19873521686778162 M-1.9787318082015446 79.07819413244454 C18.472703384191433 59.0032546465568, 37.11278930482441 34.50808367475584, 68.90288204257205 0.5500968193974032 M0.023084034263021636 78.73072573952106 C25.391364366007565 48.49547763328632, 52.8508379779242 18.376194188886416, 69.5334108371736 0.8055410312827362 M-0.5806085184870255 85.68755224830613 C22.504962855269028 57.36206654324007, 46.316311384132455 30.362867625032194, 75.14956377636882 0.8833253820998834 M1.1572157892676103 84.20471187233136 C15.988793596972418 64.60364001428597, 33.69641954552279 45.57101094391234, 73.70114627857002 0.3222891362024711 M-1.7682737194329334 91.08077567559168 C31.885414675798327 55.15721530231218, 64.28863976031768 20.189253532949493, 79.47464158981768 0.8538128109137944 M0.02053288478852977 90.56436804984197 C22.540484545809125 66.20962281218256, 42.468978825110945 41.54524130128359, 80.25327946282653 0.4825808209787539 M-0.5076166242362632 99.4395562012659 C20.77759445006677 73.81107444751947, 44.59288453914487 45.011713125394365, 86.90031654871211 0.36901006258111124 M-0.6748143415899648 98.63854182073638 C30.044735020207636 61.776451414952064, 60.88331603435924 25.561733059847228, 84.36075413151787 -0.8484303209276902 M-0.7137451960940098 103.20730436229351 C28.41789320394518 70.07977370542493, 56.77062964756579 36.3839105133834, 90.00033485288361 1.491925164734866 M0.9766838227163817 103.90647135869804 C21.299047768906007 78.071824919907, 43.43436159524712 54.03875636315298, 89.20113728525678 -0.5738617501650793 M0.9058367648253167 109.22827818630756 C18.197997307897282 86.26223697470186, 38.5811774176199 62.709723863778784, 96.27346006812573 -1.7215534258829734 M0.043219378320308977 109.82441420307876 C32.51761090706535 72.83268804647331, 65.31139042589925 36.242276140335534, 95.14459141561807 0.6597213767273047 M1.5686428243152264 117.33961613005003 C22.81807847507398 87.45962120016303, 46.79542785477112 63.17255193312675, 101.02000089426988 -1.309980181639368 M-0.7144201832034227 115.60518019733927 C35.77003886418388 74.71845605783301, 72.65123437641134 32.60196973431759, 100.4429022732144 -0.4375171508987492 M1.2937316822072091 122.28401372115394 C28.64656212537203 85.48935455197585, 58.4815605089892 51.8166304360236, 106.71528339710963 -1.5690291457923635 M-0.1538241112420735 121.31830813083133 C32.99357970541626 82.86303869361736, 67.08854364278122 44.60744968288543, 106.41545109962058 -0.773861239582537 M1.61912037530427 128.301756496584 C31.44573296679421 91.46364781478611, 66.41264575875033 53.67956499652594, 111.88617877647646 -1.1388172907089213 M-0.22104519321138838 127.66959867723841 C34.0637734461656 86.55824598800305, 69.03868610836831 45.30746115972805, 112.13824239544935 0.22413415002773007 M1.7586071904094212 135.26984874330498 C26.303940283676365 104.35728563132696, 54.507244433334606 71.62491320421393, 117.82851656917336 1.588128420575707 M0.018723158472894852 133.32774313524402 C22.202031188272866 105.35975532855126, 46.53381121332551 78.58435435702864, 116.97381712328496 0.39117594161555047 M-1.2414054226458688 140.8411422389499 C34.41904031122635 100.20136948649684, 72.804260443659 59.706893513306184, 120.76390756200334 -1.3940002249737802 M0.35046981942349476 140.25095216919996 C34.23250863120518 101.50589156097217, 68.83226017183964 64.28821333074141, 122.54057562071165 0.1498616838643727 M2.2155023519319315 147.03636919026073 C30.264143425283645 112.57225759129958, 59.46061010948249 79.82957031676962, 127.99656670479789 -1.5651639497243153 M-0.060720843784807244 145.4664887475669 C30.367350827883758 110.91808366192255, 59.9508448149203 78.77547279214227, 126.68210051334216 -0.16269170887398587 M-0.757587964941956 153.97497685769542 C29.643389265201726 117.7161293754131, 61.87340652517408 79.35713836747824, 132.6221854234102 0.6333434441692084 M0.019856046530716848 152.19427225509233 C29.7687801996556 118.78376667008354, 56.60194668090392 86.38790901271184, 132.05402349939754 -0.46761617124072075 M0.622332427381775 159.30856180407113 C37.60507507276119 117.18212529268199, 74.15610866089642 74.69578084086729, 138.3407325047217 1.8974310694151115 M0.34679008615119256 159.4259562626259 C51.474188112165116 99.07619284026477, 102.65307834196244 39.44827573571804, 138.41238749938964 -0.037229314640610855 M-1.3419095742264975 163.08317287746056 C42.339715044002375 114.5167633605123, 88.64148386507014 63.92366995958415, 143.26386750438144 -1.6153294972461405 M-0.36697363616303613 163.97210873880258 C49.799967880960864 106.79230603756764, 100.36341109207564 48.23732050907504, 142.97848999165842 -0.2029885496634613 M0.1323677329333543 170.125029078214 C43.889311153960016 120.48133285111483, 86.79551359754096 74.0758884197796, 147.91797178719892 1.0462608261763515 M0.28556129917658635 170.43935480526787 C54.94004040558553 106.3384544820107, 108.47661601630703 42.69409414549823, 147.38134610536278 0.5836265138908558 M0.9310105643985213 177.61992943891573 C47.822196708012555 116.40802349852656, 97.51316828600518 58.882296623039515, 155.06986833082078 -1.62090074609252 M0.7363315542831788 176.34922976121368 C55.21567997225762 110.8181914878353, 111.45738629909128 47.67034179186789, 153.9108950621862 -0.025193406231038232 M0.18763857911910303 181.39643030366608 C52.624198202433256 123.10269662185384, 103.47421588535704 67.53765023793339, 159.62390145630644 0.36932601168818746 M0.6053059206202682 182.68423590641055 C42.981272754995686 133.6889292605018, 85.63983255866322 84.36790513289698, 158.69900546316245 0.3750137582960268 M-0.3664802382227667 190.49509988181805 C52.16117296000059 128.814398033966, 105.98127843099157 67.86312838005692, 165.81586131400462 -1.7437761806278789 M0.049397788988823355 189.44134661248432 C55.35963115962213 124.56879696906428, 112.82879137817916 57.957655927010485, 163.73022654545784 0.3683304967740971 M0.06844631388822582 195.97851633716564 C56.25129509358434 130.420203085288, 113.9781195636153 64.10787989992441, 170.3043885568684 0.6130289358139149 M-0.5343183602111352 195.4364448869035 C46.833341118193445 142.86286472453472, 93.49539417205057 88.51265293926366, 169.6788583386577 0.06923048786202526 M1.1429683949068945 199.79479547687072 C53.49880744008974 138.89835112244026, 110.19468676226222 75.49506659285, 175.78480277939747 0.8110754946841381 M0.6093822838268514 201.4981459321142 C43.392982004267395 148.76530570930058, 89.54340442172115 97.94486796468718, 174.6907115832848 -0.8020424590026312 M1.3284360351899271 205.61573188545097 C68.71784620826277 128.48231094186858, 135.75777150348023 50.94251492473279, 180.93526308370903 -0.5378702415831845 M-0.0014053290109979355 207.59190694259632 C60.20171148217286 139.96873254157418, 119.99047990628377 71.53529821225519, 180.36509402271773 0.6269386468759608 M5.95220476582088 206.12114341118948 C67.56315751434123 132.36710485193527, 134.18855731658542 57.937199181499864, 184.29701570631426 1.0180991925914156 M4.76484340880483 207.33851888947248 C56.064022789649165 149.69813831224414, 104.81153389628791 91.79910906799049, 185.78130397727773 -0.974357129861286 M11.952070534851885 207.73411916537287 C49.45638599346325 159.81826505287617, 91.05373825718746 113.92298051594632, 189.9558463363648 1.0801616008234545 M10.995440900044205 207.1791237637892 C67.65160280843112 142.70266446759618, 124.49002567033878 76.9703125620641, 190.10011369673603 0.18489968060087333 M16.99533951544097 205.9034612201831 C69.31190423513537 146.39976469501758, 120.34713196482434 85.5493092999864, 195.85674385171683 -1.0612951827716635 M15.822046689549515 207.3544386136382 C58.25167011250479 159.05083861599297, 99.42694890043595 109.3467254406677, 196.17262603937922 0.24604946895347224 M21.136835785472098 206.7341683510748 C87.68047323659472 131.78262178050483, 152.34772352811325 53.93666731916174, 202.5860397542366 0.41071378787732454 M22.009322144587077 207.388186790344 C68.14340820401547 152.51465523018467, 115.75490793546214 97.15920175510708, 200.58917129630058 0.3284919580666449 M26.297323992661163 208.11656401349066 C94.4779609435032 128.9273671981254, 164.29410108215924 47.96248922032509, 207.8673951876101 -0.7163373804614027 M26.452573967333993 206.7362834457446 C64.04444841184466 165.38063514167712, 101.19426031643617 123.50899821003064, 206.6486802264502 -0.23905953034578314 M30.758325506191184 205.99467847966616 C100.31951670406485 127.89660344281123, 167.20173845600303 50.11500080954314, 212.27984681896507 -1.2303402058122277 M31.58671015442231 207.3366644443311 C92.30234193954493 139.58547177025707, 151.17808888630177 72.81587502912168, 211.28885278996603 -0.1523572174064406 M37.981965654512685 206.51760214658094 C88.38980314346239 145.59731883899832, 142.9141660801331 84.75775759025919, 216.82422529602536 -0.823627170009038 M36.986011982392625 206.50459923930725 C87.36837839083955 147.4902303639424, 139.892217118695 86.70085708762564, 218.05973221622503 0.201333788256587 M41.76539549399509 207.48966425970306 C105.11284218134232 133.7542893321141, 170.4215611108288 58.67885246863897, 221.12916000848634 2.237415635700308 M43.00749053511159 207.2360371942338 C82.52963125605594 161.10651834694326, 122.49998267007444 116.90151881046701, 221.19276279601863 0.9077654064427607 M47.49672038348114 207.41335107961288 C101.26961149945137 147.66891346396636, 153.64552511068962 86.11466763486698, 221.02792476905432 8.101770118130393 M47.03344004778388 206.42900263700747 C91.71172981755957 158.21371902760856, 133.81950314447212 108.78405948065532, 221.66846811393816 6.6236510054572 M54.23184664826453 205.5136820964658 C107.6548531873344 143.33598808982026, 164.88411470353395 79.25082279344603, 222.2227914958887 12.093789828223596 M53.40657509952043 206.8312342702504 C119.45262017135788 132.79132076120152, 183.9679117330978 58.63854977315904, 222.05581671635667 13.546407835974204 M57.07212300950283 207.98094186982016 C109.185636253317 148.95762220956777, 159.86946930029998 90.4426154560754, 220.8471084146988 20.462594016524392 M58.68143744498953 206.62991004793886 C99.65380313252867 156.95349761622057, 142.6718338972644 108.67023906729402, 221.05505441169424 19.309600583558545 M64.05757782654823 205.50117272664588 C127.77591165362831 134.98115814898858, 189.3566154653761 64.20075640405501, 219.88698415505925 25.934780842972824 M64.70500524974926 206.97871406384056 C96.38605971989897 169.0517234484981, 129.39623965088077 130.57932363579047, 221.91281913223148 25.358659922581133 M69.88778546123166 208.6231841706325 C99.75960474876598 172.69901613785484, 130.72306016752128 134.79652100819447, 222.8392745428204 31.403636348445644 M68.46392915038477 207.59815528070442 C124.92953713960041 143.94523174970905, 180.71786597675788 77.50064209371784, 220.63174191415797 32.63996778562988 M75.19065750399591 205.91743968290996 C133.5296614823496 138.95417536531806, 191.54991595355742 74.56091242315038, 223.08956870919496 39.37594012073946 M73.32901890830172 207.18958692893946 C108.26677796098882 171.37236072252267, 139.07776711422957 134.17104833610273, 222.1023784826376 38.037985969739076 M79.77694367469451 206.4517331329918 C119.00090831149264 160.59006206699138, 160.2069820480474 115.495262953762, 220.49267932716032 43.602067013977646 M80.38692983611243 206.73560773734306 C113.95615076393757 167.03370681437042, 149.50802618156504 127.26113006369961, 221.33905903655213 44.233152666217975 M86.012001792217 208.12707050044426 C116.36681522735006 168.67528677467507, 152.5226604713193 131.53207602129177, 221.40559945683376 51.163531587134266 M84.47106575176363 207.56730177560928 C121.42184108231467 162.5689146461833, 159.78367079499495 119.13946354046739, 221.5688593430806 50.31374380816377 M91.3008494797986 205.60045900942282 C125.50620104171787 164.48477705236942, 162.20331142444502 121.43007393900697, 221.26265420870786 57.31368398957741 M90.9567787156435 206.88074647818132 C141.82711643212502 147.53607145494468, 193.42273316941902 87.01365653573312, 222.1714017710602 56.934558299413816 M95.10635532853203 207.14898966049964 C121.30856261651378 178.4481080381497, 147.07241210400608 146.3019636946584, 221.43782732721218 60.65502559780768 M94.5674241841306 206.4037182590198 C120.82710956556959 177.71982837246736, 145.58690001362083 148.56314533497655, 221.28935649517723 61.81949243895403 M99.09469813410617 207.2038139873623 C139.61021291974623 167.16259398814992, 175.50066779506312 124.0619785892257, 222.09113860520796 66.44376603788805 M100.96204637479461 207.97074025920324 C145.76077918863072 155.18866324913003, 191.33527562039114 103.30822568106386, 220.9125934747912 68.89177569090498 M104.24517725370734 206.12075069596136 C133.34569863340946 178.05546882673127, 162.74364413713198 145.6311049358677, 222.14498951754328 73.06129366439234 M106.36521181613116 208.30911345643068 C143.27737391324493 161.78066945309445, 183.55761085930465 118.0596743047126, 221.69372673242148 74.1553930500562 M109.85343125312912 208.90881324303882 C147.11598640655444 167.76820224161173, 180.4287263804859 129.35552683420082, 222.1020498800117 82.12209068406251 M112.37364549971508 206.1707101941629 C154.00797408126385 157.78317299042817, 196.3460887632956 109.83598016015576, 221.09471563464285 81.09073248486844 M118.51664383220299 206.98257215622775 C158.96480042272182 159.37309886844096, 200.6183471698102 110.14483612542898, 220.8915346424447 88.52119637453168 M116.7156956761591 207.4141317617517 C155.64665696577765 163.81537129977113, 193.5335853113616 117.99886664818327, 222.14664280706808 85.84741090969354 M123.50701605672242 207.99947839227005 C143.35804423269795 180.82018784187463, 164.2850908331861 155.9880206963505, 222.58661709164528 91.02624002276448 M122.43730608703794 206.02953175265773 C147.84099002059742 179.17887297339684, 173.15412644838364 149.77569018206464, 221.97962733728139 93.02380712321488 M125.64829412651893 205.77253997879882 C152.20694289415377 179.40693018041236, 174.16402477195982 151.58282643224396, 220.56125176441645 98.41656966572569 M126.59104373296437 207.23879270623286 C158.0952454277326 169.27868163728655, 191.06432655616345 133.79425496168204, 221.79214768786704 98.993690549116 M132.68924160738604 206.10764537255596 C167.78184267520535 168.7115498512713, 203.6618822468559 127.52892370642141, 221.6469973605897 103.62238083104833 M133.42207110551314 206.52034946593773 C153.95872590056294 180.65324515678083, 175.6644464976364 155.0405486338915, 220.82036460943777 105.23284997674867 M136.1801671991552 208.71624010117458 C164.48355032629513 176.3933856779521, 190.47986105706363 148.4799785174426, 220.8504299459585 110.31674947547441 M137.05717395529697 206.70936582112418 C154.71457667839238 188.617215793811, 172.37947601919936 168.0422066639437, 220.86803434356833 110.09862649957364 M142.84639696761994 205.05265012139657 C159.5947233892349 189.6822377714454, 176.13154827279794 172.1276238743145, 222.22967072035436 118.8283086266369 M142.69073352389066 207.02255786525288 C168.73690800479702 180.02844753824664, 192.07735539160575 151.54211684766366, 220.99553639087145 117.93009015694264 M147.46480211261175 208.22675846085502 C169.1212330454575 178.71700472052476, 193.33770546159138 153.47445657883554, 221.61179922058034 124.73328132150056 M149.2737543119069 208.15837063767566 C167.6459365444386 184.32634795677535, 188.83134309503365 160.39450016805228, 222.04978671393144 122.82757287253918 M152.23727119992418 206.8413285762919 C170.541654399071 190.1691734433192, 182.48024935157892 171.11294511106246, 222.7496762334394 128.99460934703015 M154.69983631092055 207.3218014818532 C179.13292160290757 178.12263435712055, 202.69609296019192 149.68608439461903, 222.63356065033253 129.97929719504677 M159.66723792938865 206.90468099534016 C173.46166601396087 189.7462537555141, 186.81963058720365 177.4429163395233, 221.47876670876303 136.10108198085865 M158.49420277154422 207.3245766871373 C172.86011245842775 191.50550814350436, 186.58932605782329 176.24114291508278, 221.07481582568744 134.98800503881714 M163.9331533667987 205.66801667474184 C174.2488135145551 194.86445723821447, 186.08511608364896 177.77819245224558, 219.77849393335424 141.41407850995083 M164.99967243535275 207.60997484698865 C177.96293641129282 191.3531358460235, 191.25178650239155 177.0255859597435, 221.30054632758043 142.4052002025338 M167.76501371198586 205.53809364213 C180.7254141835445 193.23575213144014, 192.42223659719593 183.17498614574598, 221.929062444016 149.30669697127144 M170.06568730295888 207.35300350075912 C180.67490613663026 195.1956074019452, 193.4901834613808 181.2296343603391, 220.80610561859575 147.05777710988025 M173.81783253074357 207.91455035424653 C194.0470802686041 188.74453576950188, 210.56895210202129 166.8683854696572, 222.66828094057988 155.30288289245345 M176.23428486593733 206.4852224919093 C191.5016192007846 188.47199445350358, 206.67093915631403 169.88678689570514, 220.62452944934617 153.37464955020823 M181.54816852290332 207.1025823387245 C189.42388788307176 198.34439075824747, 196.24629697654626 188.66185988829002, 221.9089754888393 160.66946223023888 M179.42912587490082 206.79492060979103 C187.77503320619755 196.54203376991796, 198.0624353086845 187.59525634099114, 221.8564490614064 159.1662836169785 M185.9315387252682 208.90497513252865 C198.31683951022288 192.10945737890194, 209.44238148090858 179.99882644484734, 221.61551728862582 166.32881801226077 M185.4854075424337 207.70664852808784 C199.30420489065116 192.55509981542272, 212.35471091719285 176.61337295598, 222.35911895538925 166.72487434954283 M189.61924142464116 208.7612330226237 C196.86841599476207 199.30986830693814, 207.73092143412532 191.45195009759829, 220.5212358767424 171.4509232754838 M190.11918645612016 207.60784754548317 C197.64454963372228 196.97481820276644, 205.60207994989747 188.84200779046807, 221.2763300938789 172.60387867158468 M195.0951790708537 205.8867077866427 C201.58072678574706 199.9720863343008, 207.79072256301305 191.33874353951308, 222.28524203999208 179.59246980687274 M196.89670149157297 207.17547832632877 C201.80102594555774 200.10900113232893, 208.4943541437618 192.2204769972347, 221.00773281445967 178.94464413178756 M203.3932714796993 205.86463163132757 C208.3061471321785 199.38164646471384, 211.6291107440997 195.1216162237218, 219.64925072820634 184.83599688406062 M201.76428701536685 207.1555538390854 C208.84774073455725 197.8519733121626, 217.60206339498006 189.86907386985024, 221.17815974274427 184.80303764450323 M206.9739836010095 206.55879383431142 C210.99825449882417 201.73885932584483, 217.52793309237532 192.43328702304353, 221.15499425717869 190.38192421378943 M205.73740065311458 207.46331599810486 C212.28671132855624 201.8912223252285, 215.93384039307398 196.563545958846, 221.16753899530747 189.92897842819247 M212.84076810133502 207.6726655051285 C214.69376434621938 204.10342481566929, 218.98737675153325 200.1475079960736, 220.44228265140913 195.06014039814204 M212.13292654090418 206.45270194878668 C215.63624732930273 202.70379914765005, 218.86276770857725 200.14288942450153, 220.98770296112409 196.04391064960242 M217.0701557761458 206.98447073810013 C218.58027668922867 205.61475050073642, 220.27498726709112 204.58973460847983, 221.07270747654377 202.2770127624741 M217.16759776141768 207.2065417965895 C218.757353244187 205.74387120069102, 220.53906761313374 204.10725821201373, 221.0771002157429 203.11892664232312" stroke="#40c057" stroke-width="0.5" fill="none"></path><path d="M-0.9451132733763827 1.728052848621644 C56.37417151651344 1.568966550909563, 115.82830415707313 1.6417056612751924, 221.04894121409595 0.9828336238103285 M-0.17479426952837032 0.09338359603480621 C54.441030087509304 0.49388889215683796, 109.55278009251528 -0.44776618072426455, 220.13917326605718 -0.1450501552012749 M221.75729945630462 0.4473064796746165 C218.2307958478249 79.53832153093343, 218.34186835170797 158.5752914818901, 218.4578078973484 207.47455850293593 M219.46072583260386 -0.3725887804453567 C219.26624593035731 58.55243272958347, 219.37040263146068 119.66042526649676, 219.36271206418542 206.52468229230732 M220.2903148686024 205.51928630441355 C177.18260339605962 208.59910552619183, 130.06562334791715 206.8905462382268, 0.6499878916428908 206.80336549398518 M219.6236246180585 207.18297030000448 C157.50826372042363 208.1394791407205, 96.74520476592306 207.12805174808386, 0.8050863977006859 207.54430740981425 M-0.3380772262273222 207.63939358092904 C0.6711098706041342 156.53012783368007, 0.03993227351675083 103.38873039569927, 0.45792411815505923 -0.1613501371364683 M0.4647196133427576 206.19063006824837 C-0.9448703761917012 143.97270208288586, -0.8393006205503838 79.11983232431014, 0.596491555413194 -0.3197782497123912" stroke="#000000" stroke-width="1" fill="none"></path></g><g transform="translate(50 10) rotate(0 70 16.5)"><text x="70" y="23" font-family="Virgil" font-size="25.31645569620253px" fill="#000000" text-anchor="middle" style="white-space: pre;" direction="ltr">Your laptop</text></g><g transform="translate(659.5 10) rotate(0 39 16.5)"><text x="39" y="23" font-family="Virgil" font-size="25.31645569620253px" fill="#000000" text-anchor="middle" style="white-space: pre;" direction="ltr">GitHub</text></g><g transform="translate(630 86) rotate(0 70 70)"><path d="M21.902000363226563 19.03911844739903 C21.902000363226563 19.03911844739903, 21.902000363226563 19.03911844739903, 21.902000363226563 19.03911844739903 M21.902000363226563 19.03911844739903 C21.902000363226563 19.03911844739903, 21.902000363226563 19.03911844739903, 21.902000363226563 19.03911844739903 M6.0703456223531695 41.39531763600888 C14.99086195210915 31.583667933102305, 24.24612288193074 21.405995563017488, 33.92958301970134 11.580099732593279 M6.944951618887398 41.501376339744354 C14.802035761180733 33.48350853963338, 21.32569907488881 25.41853294065489, 32.01117800654242 14.251709538490157 M8.849391463446416 49.27734931638402 C22.75619870460879 33.248045189497276, 33.64483840163568 17.037464501725957, 44.28992748913126 8.866554175401994 M6.946638630005516 47.49532629070741 C17.760955457403853 37.04414898793491, 28.823757451316382 23.31728840083515, 42.94613622595327 6.718489310602614 M7.841919207615835 54.14432438665173 C24.520307218046668 37.64919820628046, 41.33125328090514 14.351152274600025, 52.45971685834383 4.627961988861337 M5.192201144663674 55.60370762289605 C18.83769867545352 41.70149689308238, 32.322687356736886 26.043530241877868, 51.855881676079385 2.8998789017299558 M5.851517722048925 64.03445085462452 C19.31641343505749 47.48993349827709, 28.50211161877469 33.888144260684626, 55.84877262856453 1.878400751674885 M4.14410254176812 63.39628351990403 C23.79439464639436 42.978066584737306, 40.74794028968261 21.320020256840138, 55.994657244864996 3.874714191357011 M4.693494623933184 69.6617179781149 C28.426684056010203 44.63601344971094, 47.724769213354584 15.795443339311234, 60.97028436991442 5.130923910095742 M3.5401968252251024 70.8236765403251 C20.45635687112449 51.83811363796482, 34.68468902570612 33.75837593482488, 62.67124576414991 4.238385051518133 M3.757758222475111 80.05031542538089 C16.604967436986033 59.335619257602914, 35.70964064974457 38.19438281312511, 66.85068817059047 4.8620428021591735 M2.1441105659598705 77.66428777819854 C22.32780079172674 54.80935552096792, 40.97360165370594 32.440102569196284, 67.84634845884986 2.379817371029837 M3.100466837795736 84.3578278926756 C27.4127293020696 55.70893568082382, 53.53158689609754 28.208880046294723, 74.8091978977802 0.8443404356776796 M2.024392220812203 83.15999148055872 C27.535330052039907 54.31797498090348, 53.451385672645756 23.80052800046664, 73.0996162078711 3.6265868334858737 M6.197848221120545 89.09442670870263 C21.937031217833905 70.22899051341548, 35.04868897232819 53.135417374649826, 79.02068713968059 1.780890648686551 M4.495831552726337 87.04782665189046 C22.203451887049443 67.4220876265873, 40.272989656346255 47.22065336568324, 77.38003148612937 3.6918380777027835 M5.006025960646525 93.68193571149723 C31.909135443473062 63.12258589154766, 56.28777216599275 36.89123531160238, 85.01492532146017 4.411419788552713 M6.366786036618009 90.93156293101029 C33.160613891563635 59.26470333627204, 60.696778214577776 29.66770881102707, 84.69264448051194 3.592946376828742 M5.867842394570673 94.84295998909467 C32.48534135247913 67.2919628224003, 59.620640895983755 35.67572047480911, 88.30310547333488 5.674983353757007 M7.033503772402966 96.48332933173471 C36.726630946873776 64.59808154671322, 64.68742636171945 31.91973514947105, 87.91260085795352 3.6266942801258395 M7.35603569806149 102.46175713886191 C37.47701196212026 71.36504143986521, 61.783307669589306 40.08329972460097, 92.8134345204733 5.2878701916663715 M9.51080057196846 101.11698550221195 C40.36221211689129 64.78567469047206, 71.13620237494209 29.678527835663516, 92.40823205534141 5.759675810742266 M11.555826680325474 106.99220432905703 C35.173188949615366 78.5881545986312, 57.70172594400329 48.99995523171586, 97.51766105107234 5.906279140316094 M10.902146756239738 105.20858878648131 C38.484489186946384 72.29900169038629, 68.189537256301 40.39327112279618, 95.85508304759131 7.603473107494558 M13.188391016531149 111.54512165704693 C35.93537422630749 81.29614843327829, 63.50718642665481 49.942778808800036, 99.58637046131008 7.477771127295888 M12.710639387104074 109.99621758269097 C29.692286845954264 88.50649908079382, 48.62641550603077 66.76923676061185, 100.57870749260002 8.57860852375368 M16.2055641028565 113.78682005042137 C50.81453816096327 74.93236170365066, 84.31453015995527 34.541190611092276, 104.295807868374 11.63039791041826 M14.621207122458202 113.29101924421192 C49.778789373053385 72.92559297757964, 83.01684483543386 34.43886611041921, 102.64899064427377 10.116173368113387 M16.35272299850803 113.5735204274384 C49.95616398678634 79.12213345838737, 82.8746691100992 41.235336606632856, 104.90287811046107 11.797702077718483 M18.250992158227376 114.92412924008347 C40.207915353184944 89.45363899740495, 64.11360730752467 62.93574084683899, 106.94264935252829 13.595327904390203 M19.668022541682717 120.05751537613327 C50.45675925124469 81.78875981225235, 84.44513072753409 47.609323781509914, 109.14438186273982 16.324878726563526 M20.836086344327327 117.66533283412213 C40.70176201053275 94.02379266109065, 61.27631815859855 69.07356722134364, 110.82996817925086 15.261963030732346 M23.669513407549076 120.30274999387295 C57.64868424840779 82.70975429473847, 90.32759551343717 45.86708728652147, 115.17566146340724 15.122032944988632 M23.606149242645316 121.6511459244761 C51.102238547584264 87.24745493587272, 79.04079706948121 55.72088155657852, 113.3009452243572 16.69445776095631 M25.29378793430412 121.93807936869271 C59.21201968535366 84.19667917267587, 93.740865512881 44.68925426451797, 118.06983702965084 18.770341490806317 M26.910553953097107 122.8505725249619 C51.704805740314654 92.62054640220296, 79.52864141499366 63.21345644309549, 116.65202824175361 19.722340903655862 M31.395216239135337 124.26343025840504 C53.0830817583301 99.7101156179144, 79.70513876039219 68.67305241593291, 120.3806883996676 22.15647195205186 M29.905123229588938 125.98376644417328 C60.43967271431353 88.54551627241125, 94.39476449571328 52.67557758281741, 120.2364965813558 21.87321022264753 M33.96488718923021 129.12951067082244 C56.67384454606193 100.69741249659944, 83.48739608993665 67.54943265254677, 122.64189124862602 23.578744426092193 M32.95857045102704 129.214240865704 C60.36328972967135 98.42269953454647, 86.1686451551639 69.11076124631016, 124.151197305051 23.291394116079495 M34.00560840177627 131.06280986375745 C53.38450130852592 110.05070617614152, 72.03006881152731 88.51154394633096, 125.3374858277516 25.664517741630938 M34.7149996213177 132.08636834814783 C55.69134365373641 106.75761924563848, 74.8712203644422 84.31157127001197, 126.39451392578349 27.46783783843663 M38.71902430194202 133.88117918457698 C70.12702406002069 96.22015882584925, 101.98048179560352 61.11507301437129, 129.9617033701939 30.929255335589488 M40.46852342734817 131.95346166465293 C64.99306926526656 105.99436871396132, 90.26421004600758 77.8926096762701, 129.11369281342155 30.611669377421578 M45.44426194893394 133.34708955153906 C64.0066895707477 111.12957786659467, 84.56309245397058 86.7179456343114, 129.70913968515933 34.46745937622587 M43.28940906504367 134.4435312842586 C72.14330377690423 101.53710470766791, 98.5562662257773 69.6022597956467, 130.48251678889036 34.15363357707361 M49.469285209939514 134.76437397245627 C72.5999352213615 106.484134038624, 96.58882648656365 79.09057545605015, 131.91034544781644 38.530574960907074 M49.02293241331044 134.86852789055865 C66.73588534092819 114.51427652780644, 82.70664580419601 95.20577221415274, 132.32439541407723 39.13649633554098 M54.59377670214628 136.612646705141 C83.25428090357744 105.01560352396028, 108.39479416144073 73.07447345059703, 132.6583539673717 40.68966675789112 M52.039759976054775 135.67126154214674 C76.50161757872337 109.10016477648736, 100.68710903512161 80.76865344883782, 133.92639275990737 42.19022124686295 M57.00413779274171 136.67230325740584 C73.57928297353136 116.25573967810448, 92.57062637792309 96.86715995244806, 137.93215341899366 45.92274236454498 M56.29844888218289 136.3629016726167 C84.5095770094581 106.62190388048865, 110.22798008982203 78.32423080411147, 136.35019963826807 45.43179295918774 M61.1484885989133 138.14952038706326 C85.98395552406063 109.62298444809969, 107.95077584431664 83.61607102263832, 137.56715558289827 51.53213852934946 M62.407946885601035 137.46047709056222 C90.1090086271862 106.36516331843612, 118.02281255492078 72.04684199149416, 137.59010234109402 51.195103396777405 M67.61166798784859 139.80125610192576 C88.94073947527482 112.1628649731892, 114.61730280404188 82.7969896768872, 139.03472710526356 54.477134929894284 M66.69009236521549 138.4243759795771 C81.2035085715922 119.45896463558066, 99.09976735689878 102.09215693452875, 137.54001390128204 57.17606553800292 M68.33417454774452 142.8149592400286 C96.7009956487581 113.33818083189077, 122.63041696473911 81.01002767829391, 136.6929533822675 60.51779249376919 M69.58605529594196 140.35055547847782 C84.64679655023355 123.96595995977928, 99.88804146238502 106.19458687157157, 138.4317379767288 61.388951736235285 M75.07957979074116 139.65060240807043 C96.25621247004591 117.2769153868611, 113.85772153263885 95.13855389741776, 139.00557953109762 67.09466297878669 M75.31125045163925 140.62507461974428 C99.73041289595918 112.6662963890452, 124.00849235159669 84.72624867641468, 139.24140982134065 66.85860330006824 M82.12470174705447 138.73161610453207 C105.30158685138123 113.83675252426626, 126.42539377683602 89.5446868237969, 141.0730694189414 72.69907939275924 M81.73301099924208 137.42752845263857 C98.26623741942944 120.2047735964089, 114.46688047888371 102.31822315142604, 139.40805531402376 72.80322091309552 M88.03913622589096 135.77750249767158 C105.45729962846444 116.38936092765752, 126.59392421728086 98.01765114889183, 140.50760566298638 78.99815599349938 M89.3376197596757 136.8761618212 C107.29350004453532 116.01665109889231, 127.43765705567733 92.91672567782365, 139.89609095868443 78.57186463391088 M96.87237487342863 134.41941626507864 C108.8256393839047 120.96721606913842, 119.74250714648656 103.81287572839622, 141.9641486594105 84.20507870859683 M95.60492726583688 135.45595020379946 C106.90896044832232 123.76861561033152, 115.55987202583017 112.07847079217775, 140.91388291321937 82.82724431588531 M103.40456905685495 135.34400291456578 C109.57627688674998 127.28939157442139, 112.88916976135408 120.91046260279754, 134.51849211953424 97.27945841898288 M101.44661564663183 134.97493803403077 C111.08647682430093 122.93820104992778, 120.93250274515647 112.21327326130043, 132.47930252566778 97.55857289073136 M35.50806014668 131.39324820331294 C35.50806014668 131.39324820331294, 35.50806014668 131.39324820331294, 35.50806014668 131.39324820331294 M35.50806014668 131.39324820331294 C35.50806014668 131.39324820331294, 35.50806014668 131.39324820331294, 35.50806014668 131.39324820331294 M42.861291964004764 134.28520712777484 C36.39376775977788 128.34908826505688, 32.635767815205995 123.98150240935898, 13.219778531064655 107.92388975765311 M44.30558538662923 133.77301063350845 C33.510976626434996 122.7567321663422, 21.83650338234996 114.25228249691826, 13.388892746364142 107.23617647919559 M53.526227750122686 136.43944366656203 C35.68833682075909 120.76806629607096, 21.252639137429362 108.2938498778646, 11.77910891340155 97.35099894874088 M53.51969470666363 135.08290285438258 C39.511124489738485 125.14647890729654, 25.481516403166236 112.16003329788782, 10.660465433979816 99.31160378217987 M60.37791204087929 137.13074761867927 C40.842864304443985 122.55966384386257, 20.7659076092731 103.50797836112162, 7.879384685287384 91.82291915246175 M62.08381966695682 138.99776600726352 C44.58266942424093 124.18442246698321, 27.89255230501636 108.2431390264523, 8.327840002233295 91.20952344850527 M67.7456707930165 137.11255268395809 C54.29403712312425 125.90263797258409, 40.994733705628605 115.66458532248524, 7.705400553464116 85.42511531864719 M67.77717636096949 139.91782334276405 C54.08685281675139 126.02804655034697, 39.10022526246377 113.85331289026895, 6.273748169585289 84.13289310378448 M75.35025829349908 138.84513284122048 C54.052931578325754 120.1995165820186, 30.911703650351434 100.97744872170836, 4.463089135119247 77.73095170510967 M73.59658108738515 137.0927165154874 C48.5036759911783 115.11339725803208, 23.209264134536028 93.63007452010984, 1.91573143994205 76.22764780661126 M76.44298590018283 138.58877943525044 C60.57457044802621 121.99392823089, 44.773463829586234 106.74277237780356, 1.2733592787769155 70.5509279936048 M79.08307909077834 136.52718267099885 C61.68613253815157 120.61084540325763, 44.61270125047146 105.98749503914433, 2.287479423546465 71.14443616452243 M84.39775498025526 135.93638797386046 C64.37380230204427 117.6658581222746, 42.72885731106421 98.39976505448683, 2.2170332005107554 66.90467579699249 M84.10147750005532 136.3261412428921 C65.16957851959599 120.64327901418453, 48.59995961070237 105.97051912886039, 4.271266973190919 66.82311684115918 M86.85018565090385 133.9066352148631 C67.07058681880503 116.14155864017718, 47.19006415731363 97.19746471109642, 5.039909347731033 60.29896215207578 M88.16697406912235 134.60037103976097 C55.096140584887294 106.9820748441347, 23.004402999173344 77.5996402626686, 4.490517048004428 62.58326204910578 M93.57261677931612 133.0689791660708 C73.00363624577642 119.80810250180313, 56.478802985679266 104.19611187553815, 6.235376177179713 58.94815825868613 M93.50765717688566 133.40401024519917 C61.41306113334493 107.84241375845268, 30.082787750840495 78.47401345843241, 5.579914491447706 57.15712628897494 M97.10381556290234 134.32471811428655 C69.86212922888062 107.26100865778291, 37.905213786955116 78.88064056766768, 5.447669636267065 51.83559365362656 M98.88171540747429 133.32811544679095 C76.91112323894959 113.51482198955803, 53.12794108293036 93.39854944591792, 5.776163512649774 52.56350052335095 M104.0957200479589 129.0956364513609 C75.78340099308964 106.68423090247633, 51.48642403327773 84.71473733926246, 5.5733252619578195 47.55826106571906 M102.11168006890338 131.50180746216805 C70.41374502123973 103.8442727772142, 38.340415565329785 75.14922412747707, 4.206939785294111 46.76491703183704 M104.24495409234163 129.3217130220778 C87.35962426624255 111.54707424029549, 67.9687691655797 92.18401871967006, 5.919145242330561 41.04422961873816 M106.2034401557475 129.40247968689573 C72.10655884789458 98.49483365840518, 38.70055053901123 71.27509053769055, 7.2363575091780525 42.19756261398898 M109.86602198301527 126.3694718052593 C85.47638636505128 108.65054317034685, 64.94961351287806 88.9843773528971, 9.775393034127246 40.460995512515346 M108.10693696669016 125.57664877557725 C69.60244284310023 92.21185260653682, 31.259168351738865 58.712965720329436, 9.225664027762305 40.49212927041952 M113.04927549761285 121.74939511669885 C77.25213813917699 92.25741048178159, 40.34712160513442 58.789472354564566, 12.81905084408983 37.2768361968821 M111.06163116608312 124.16986784478735 C91.43092929542846 104.51425611319016, 69.64429570946129 86.42985753414732, 10.123997309507573 36.34766837674138 M112.25294684287634 120.64851040622798 C79.81544949371141 92.1209208324516, 47.662861980472044 64.64922859000941, 14.007657949851358 31.01004648763194 M114.3760357223871 120.27181327013878 C82.19315206917307 94.20960172546478, 51.482203309095155 65.33206604268142, 13.549724268765653 32.093326799529336 M118.21582529643877 119.30386248964021 C94.75721275724744 95.76698870043639, 68.57292137282056 75.0655693606057, 17.416634058153786 30.105466334596354 M116.52789254995389 117.10225691820631 C95.17994574700602 98.15408301125623, 73.69386038453959 78.60933969085136, 15.815264123997249 28.377374664396125 M120.54929014526486 114.53510034575753 C93.50293343053158 92.80092591881296, 70.13768758210189 67.97505360511222, 17.397246366407387 26.651894024578347 M120.94370544746697 115.35615294359319 C79.96297607820605 79.11597535355813, 40.80466779607082 44.10421875737356, 18.272555459331386 24.697118558926 M121.87643942631937 111.8376542034019 C84.15579889404384 76.61579247072507, 43.988638651452035 45.09604699937155, 20.187480822022433 24.538909094380923 M123.32536883860982 113.10931487590263 C91.49285787346096 83.56954477957254, 58.58912093911351 56.17696955501249, 20.111427483897085 23.368224445703216 M127.97121866723529 109.47591262836684 C92.27093540715966 79.78741916718683, 60.704043823593466 51.670152530002646, 21.522913381740878 19.613695243835572 M126.97679651273421 109.7240927067094 C104.73845620509339 90.9322206109292, 81.8180427057624 72.21853423348142, 21.15797129115505 19.494040575340513 M129.5957442445319 107.35975029149338 C93.02560120566976 73.7494460043128, 55.438312586992 45.43129388709382, 24.549386653418537 15.054512567726313 M127.82874498307814 106.53840065763578 C100.83319248776138 80.38403545830283, 70.04554028565002 55.91625266305277, 24.974716500679847 16.15156971840316 M129.9223991858421 103.73011825857498 C104.66865850231916 78.34301254759477, 73.91752630652257 56.51305592715809, 28.90562367402014 13.591166294875137 M131.0484092889933 103.36380747025646 C103.79119726524037 77.72892798205619, 75.41099930537897 54.09196871944912, 29.130745036154956 14.424437904494397 M131.12586610835353 100.69163078742415 C99.49992211559831 67.90150443474802, 64.73283825713546 38.7013387559532, 32.862356650287644 13.598183875113534 M132.81895593438605 99.83062320316523 C101.92215078714389 71.98721164274902, 71.1889355758344 46.999636691290355, 32.52831986604108 13.308571509226965 M135.7675463792536 95.64968338585342 C103.63348553964111 67.36598145792064, 70.71478643436771 41.18600162256438, 36.97087485985409 10.500110124235015 M134.91144204816254 94.63751728995587 C114.46774179078669 79.40219766356195, 95.33055605751878 61.01451531158382, 36.23893290469002 10.929992399175624 M133.9158505355071 90.77939378268474 C96.2881471171084 59.994096832657725, 59.44374493276054 27.617380564615516, 41.90034800946144 9.648034992071064 M134.99260580400636 90.83295951023155 C100.99934304456926 61.398955719263455, 66.12556106842102 31.27859122793349, 40.52812837056247 9.233845699953111 M138.04003660474703 85.77483804371165 C108.81373302944306 64.53590970175753, 82.92720483734138 42.34520291036626, 46.35050287674273 5.6930657944152046 M136.7062047412692 88.37695610556709 C108.43510821976895 62.48628717917106, 80.69316316069234 39.10680943992959, 43.955679428010235 7.170372028134196 M138.35695262393813 84.03769639775614 C119.54765101783146 68.09166499654805, 100.81236032608305 51.08862843963, 48.88894666843992 3.4628549810989107 M140.2072582836346 84.1421956055657 C115.13717365975265 61.84791249797274, 90.50446459671707 41.2084159316685, 48.400411545494016 3.3839352593316043 M141.7248749602679 81.42648935263071 C117.88870026067883 60.25126101985626, 93.48282713417011 37.69068125041761, 53.10913408196329 0.679013338925202 M140.24338606000876 80.47578494382117 C122.15439668478308 64.7272562512745, 104.3669760758089 48.03737615859475, 51.40566955714284 2.742935731129606 M140.49966999025554 73.75734157917634 C119.12345464330235 55.145289681196594, 94.91878511200879 36.8000916789598, 59.50536730539141 2.0821099916685952 M140.19846958362967 74.5125133419557 C123.1655436901016 60.2542420788466, 105.53543752937203 43.601281571941605, 57.24181766275404 2.277310243083967 M139.20218032175683 68.83351317217704 C111.40753723379044 43.32049097269709, 84.5677603754499 19.408489828639837, 64.29128105479793 1.683964052189058 M139.94753847407185 68.01688357053455 C120.16941916398936 51.956886127978244, 101.3854042312042 35.86715033682624, 62.912224465120005 1.2433237088359057 M140.35554815218208 63.32192741843583 C127.55961726065625 51.28500639406604, 112.92327966434989 40.012830061762315, 70.59548627759312 2.733530057289606 M140.88159381546436 64.072139717142 C122.99696270327483 49.08033951863153, 106.37407320004866 35.3398310402461, 68.53640667336975 0.9019545909696873 M139.6055056882732 56.222111767784185 C115.41369159905126 37.12545755676595, 92.84412287357486 16.235783122133356, 75.05360309096449 -0.7505152352172715 M140.21539857626786 58.36170815739078 C119.99408091282835 40.77384325690005, 101.03989243435203 23.445725806435796, 75.12956204140954 1.8639816980790513 M135.85950388677222 48.959374920053605 C116.40408858470246 30.86508223539969, 99.74412999533338 14.7104904108335, 81.1926799423223 -0.5426547885285729 M138.3141063499431 51.07487464189363 C117.92814756626888 34.21049173386031, 98.83774404519993 17.708462051026906, 81.1744885283684 1.3396022427482492 M131.9164220346438 40.16586585406608 C121.44566108668714 29.949467824909824, 111.91208706798 19.679814188784157, 86.77793612796296 -0.021885460793804157 M132.51047093517354 39.50034332525379 C118.820902792509 27.459712121360383, 104.09872119022039 16.04520267200372, 85.15582681726147 -0.860422332390975 M126.11511565018932 31.085868972586617 C120.8995836123176 26.908589530812435, 115.37886887224592 17.429093475273984, 95.53666297774726 5.730521603685595 M127.94089423697929 31.244031911017522 C119.57194271244762 25.90815423958084, 113.68372487706853 20.429428104967098, 96.4714614996683 3.3899732541411893" stroke="#40c057" stroke-width="0.5" fill="none"></path><path d="M94.90764336023082 5.119735057396795 C104.8772733380965 7.554169280799194, 114.67044850430726 13.846526860854869, 121.7369816471842 21.416940540823035 C128.80351479006112 28.9873542207912, 134.37432232406616 40.33967925473393, 137.30684221749243 50.54221713720579 C140.2393621109187 60.74475501967765, 141.47346830782374 72.33446906467202, 139.33210100774176 82.6321678356542 C137.19073370765977 92.92986660663638, 130.92805517857545 103.91139786295663, 124.45863841700057 112.32840976309885 C117.98922165542568 120.74542166324106, 109.91533735162517 128.58352551036478, 100.51560043829241 133.13423923650748 C91.11586352495965 137.6849529626502, 78.92031655486657 139.94503242239963, 68.06021693700399 139.63269211995498 C57.2001173191414 139.32035181751033, 44.85826200408298 136.29452780126908, 35.355002731116876 131.2601974218395 C25.85174345815077 126.22586704240994, 16.794125806570264 118.31751092821277, 11.040661299207343 109.42670984337758 C5.287196791844424 100.53590875854239, 1.9115921362166854 88.37790021483808, 0.8342156869393591 77.9153909128284 C-0.24316076233796724 67.45288161081872, 1.069375563959182 56.45945356820924, 4.576402603543386 46.651654031319474 C8.08342964312759 36.843854494429706, 14.227140492237588 26.27993066533194, 21.876377924444583 19.068593691489774 C29.525615356651578 11.857256717647608, 40.24006902079037 6.208308938323169, 50.47182719678535 3.383632188266475 C60.703585372780324 0.5589554382097801, 74.87292553216824 1.6567417825081432, 83.26692698041444 2.1205331911496046 C91.66092842866064 2.5843245997910658, 97.10787202925678 4.834388454202315, 100.83583588626259 6.166380640115243 C104.56379974326839 7.49837282602817, 106.18762645582476 8.89568658982044, 105.63471012244926 10.112486306627169" stroke="#000000" stroke-width="1.5" fill="none" stroke-dasharray="12 8"></path></g><g transform="translate(649 130) rotate(0 51 26)"><text x="51" y="18" font-family="Virgil" font-size="20px" fill="#000000" text-anchor="middle" style="white-space: pre;" direction="ltr">git</text><text x="51" y="44" font-family="Virgil" font-size="20px" fill="#000000" text-anchor="middle" style="white-space: pre;" direction="ltr">repository</text></g><g transform="translate(10 55) rotate(0 110 99)"><path d="M0 0 C0 0, 0 0, 0 0 M0 0 C0 0, 0 0, 0 0 M0.36144255179447426 7.173555958320491 C1.0056814294133452 3.3564200975805614, 3.9027473706365274 2.187096377994536, 5.263361505749172 0.6625984575447851 M-0.5017385065229485 6.160689918001287 C1.3128600595747495 4.642154083003762, 3.1796281055010724 3.1748433723537635, 5.316897952886767 0.12043823635552464 M-1.179280068622936 13.551986095726072 C2.331425490045167 8.102416959998534, 5.331908626767506 5.972624463235417, 9.490545998466146 1.044502856869972 M-0.09252997403036489 11.265802173733293 C4.106514926743011 7.256110065941595, 8.082958110121096 2.308585087536621, 11.03491781051172 0.6162421087816121 M-1.5126478290697793 19.13695985348957 C6.040514741362751 11.2044649397888, 9.487349845004404 3.9288010977487975, 15.180159780665715 0.530737851459997 M-0.3467070470145206 18.264450442884737 C5.332056858070242 12.16547322146484, 10.752697226463198 4.957043603661926, 16.43706958880969 0.8240867691976002 M-0.8674692472257401 24.352324353247045 C4.527568110287902 16.463802704357192, 10.041212337947627 9.405533747132818, 20.449996965283418 -0.399267009070563 M0.07183125076808672 23.3266630132637 C8.764150218372865 16.04184631404928, 15.323904065350408 6.316610401078147, 22.15002623973217 -0.2861600933433053 M1.808780279993023 28.773391017455808 C10.578882784661255 17.814891497686418, 20.6531467117557 4.4917168126949, 26.76689630621335 -1.2118265410873352 M-0.9102249266068085 29.673063236985556 C7.493036470853638 22.701025014764475, 13.18268228744659 14.624869305380237, 25.478806872528406 -0.5768799470725714 M-1.6077474449854812 36.74371686745559 C12.616304280261492 22.27451519392973, 23.785008789533297 6.960337130418669, 32.40916238487402 -0.6266870534733648 M-0.44901137436744776 36.09258167054628 C9.614358855972544 25.963070828966032, 19.494436186618806 13.339896101580948, 31.456537845960653 -0.7658049407169933 M-0.33855686973323884 43.642015174586106 C7.122320892061452 31.324692365964594, 15.225832726911296 25.461061391518225, 37.30820741672193 1.315399715779396 M1.004414237257933 42.20032074544184 C11.280583466821584 28.670262663831757, 22.7856780397962 16.46215104049268, 37.50968752782916 0.9618429728877267 M-0.29598577879377075 49.77128420085542 C13.684127466291887 37.294304554340385, 24.405334476623793 24.03564657871008, 42.672023483175565 0.8399999577878958 M-0.45160472393043705 49.88918350883655 C11.510412727675511 34.3004024444641, 24.977654973675875 19.732119904979044, 42.51903852689617 0.10317539501478734 M-1.1157920907485632 54.70084013738047 C17.99132049328314 35.98567882603193, 37.53346884350433 12.596065294358091, 48.11171029969144 0.10167443456018432 M0.23558935082970578 55.2344065620036 C18.000443380469793 33.44416369109326, 36.37451994289218 13.257923283041322, 47.38371546096194 1.0628141228284882 M0.9693739098588736 62.92899374616931 C21.60077793893389 38.6690602947576, 38.107091835890564 13.359023774850279, 51.264947447688044 0.771301837213219 M-0.36300392066139864 61.71873670210729 C18.34022093533602 39.01372889696237, 37.59173842881557 17.70775694273336, 54.08215718878871 0.3027145076020368 M0.09738277545654483 66.22508329856167 C16.328446430933287 47.425599790089066, 32.917050858061984 27.42854556994309, 56.92252214262189 1.6987554277550423 M0.24687029136800476 68.1369638606436 C15.50422744659665 48.21796847818645, 30.649645854594873 31.736044337317786, 58.23614457817675 -0.43265790350027444 M1.1834488084724555 73.51860331589727 C18.864015771434694 50.76454803365395, 37.05529347036303 31.059511315460547, 64.65180146591146 0.5002263973026047 M0.327044941689671 72.0475498441085 C21.42472680890584 46.770798033389056, 44.49960989435581 21.6440228693517, 64.17177273788829 -0.966504009205245 M0.32695297436309545 80.78833331018416 C26.40258567602836 53.92965450321529, 47.93528434594939 23.42643021629302, 69.92326013301327 -0.7790994921360479 M-0.24874597689615996 79.2242570746663 C20.424152038773002 56.67632415710662, 40.58420002789496 33.634102931757376, 69.48347878572359 0.535485487651421 M-0.22114389545302515 85.40437072253928 C26.749040201036276 56.885293912630644, 50.56676393565783 28.360983031814477, 75.73395272534582 -2.0777185494439436 M0.41004576937277193 85.56068152859018 C15.331562021530566 67.96627143973603, 31.7362774254384 50.527084481676425, 74.0950140804449 0.7149534383429454 M1.0682266644805836 91.7908075649707 C16.076663159572107 70.98487981924123, 35.94452528436627 52.491097030264164, 77.7340414583656 0.34486748738693507 M0.7748104232967066 92.29542937804446 C25.56234517661635 63.59797511055342, 48.46501247458687 36.22723362171203, 78.82347198985246 0.24605289003359587 M-0.030346043408073342 97.76776335881814 C26.832896398043946 66.81635838312695, 55.50037167352964 35.751477923294715, 83.85026841349111 -0.5045251905264365 M0.30269343964739903 97.91664992952511 C20.068991335486103 74.05080736556556, 41.563077966196126 48.833844990423046, 84.44026012270854 -1.0147295560034024 M-1.0899289666909908 104.44051387542132 C33.48006618165674 65.09026858160445, 67.96772247213913 23.203846340913017, 91.41248330617884 -0.6900858211760266 M-0.7190816018033956 103.61366436452809 C23.05800413254471 78.65005188492907, 44.8537076928235 52.149122421234196, 90.23512809681336 -0.8033971026037676 M-0.624422389911679 110.08861987678827 C21.86096733309316 86.17790968342243, 44.542040919747315 60.19490077803799, 94.77711571784735 0.2403142865551331 M0.6711099167445624 110.72859448021771 C20.78861159143806 87.16782248329814, 40.52088548568284 62.89275326505082, 95.07713977092922 -1.2986193984942815 M0.8788532683483723 116.50796005403599 C31.565342316379365 79.49746705724787, 64.28430591076547 40.12888895751507, 102.45370286395305 0.9177983946750814 M0.5142068540535334 114.66089562786719 C20.75465565463573 90.49130144139578, 41.59929186782052 65.8506628431677, 99.9787010128563 0.10344410348934474 M-1.9143147764543471 122.67340766917249 C38.372693925871246 80.59354719205467, 74.24729412859864 35.459162539456926, 104.7283618259145 -0.2601923056992277 M0.4944900779237571 122.0925333546408 C29.355027287406397 88.86748296685315, 57.376352270190374 55.73660666372351, 107.15653193135691 -0.061032495379684804 M-0.21761847189183214 127.08086349353749 C44.2463060566096 77.93126232893565, 87.38869923280465 28.335540398589572, 110.79031731918819 0.5327779474402448 M0.3444956681269886 128.89251634203453 C43.55744737245395 76.30091456428457, 87.85380052880659 25.469220632242184, 110.59569464423127 -0.09836489793708125 M1.2825939844639294 133.63638454847074 C37.41195298336637 93.19523044195316, 71.10960139968668 51.396519358584996, 115.69931489620211 -1.105827574566753 M-0.3106621705650099 133.56852514654435 C25.1519574089486 104.72657989273605, 48.06268878983271 78.3940281479292, 116.45450648125114 0.7471743273131537 M0.834141058069406 141.5453128459803 C38.95994887576533 93.13266298172891, 83.03841860120491 44.62916142400222, 120.79244385938426 0.08161064961947773 M-0.10896819535201985 140.71854094033458 C39.26436650583965 93.3120691005225, 82.11697794763855 45.9505120350734, 122.90886289718827 -0.2550155131330314 M-1.4135789196568709 147.6543083271831 C32.44676246729489 108.4534734950221, 64.0099269349056 73.42078235127929, 126.09096017419114 0.9019971320070042 M0.45340707752824017 146.93537844967838 C29.945292748506525 110.44036772501083, 61.16619023520165 74.93387608486285, 125.9965603848429 0.12976550288868083 M1.541975952709116 152.14332579259892 C47.12952902820839 96.10067079003336, 94.21144953974984 43.55060806659544, 133.193321470536 0.04245505401843201 M-0.3685897835089467 152.06965521049008 C37.2397875824896 110.23832696908525, 73.68035587321671 68.9594330768018, 132.0765648240625 -0.8967788692055841 M-0.5588000919248697 160.4964103530201 C34.7749601137105 117.8449214280618, 69.50377211735375 80.40082117243477, 138.62908066510113 -0.15107925537561945 M0.5108110692793751 158.9278488431277 C29.294410460201796 123.57078402079391, 58.7892488157665 88.25916851927775, 138.05286279834112 0.5422143731755396 M-0.6693053914726097 163.01956659037722 C36.736184673841045 123.41096871079166, 73.13282042629586 80.27405269854373, 141.68445829471827 -0.44615154772144283 M-0.1540307899303313 165.09175683769686 C57.01804120368369 100.95462554077582, 111.96191049111698 36.06936032142494, 143.3024201216935 -0.6412200267476017 M-0.42034217655917117 169.3739447645176 C49.93769512094857 115.68259493766034, 96.89237213254962 61.945099288954665, 147.77621716509054 1.2268506317501815 M0.18245342843339957 170.3814581608992 C56.54782324586955 106.80048164507257, 112.68258272903671 41.65121575557867, 148.969834687402 0.9201981283906469 M0.4828722287774415 177.93775627377258 C44.151079702393936 124.91100241889802, 88.19780482385363 73.11402323302038, 154.86012028850806 0.011371176292466395 M0.19883440959159665 175.8785031538578 C55.4538870840654 113.97915383453991, 110.47286392163511 51.149116948171915, 154.36774663439863 0.28882886037743394 M1.0399230626621323 182.14708420923958 C62.78277853561543 111.7732279677026, 125.5119977866869 40.20047499348042, 157.55828573942384 0.11675877192467425 M-0.24308474125930252 182.31938911764934 C30.60804321036553 146.0893618930161, 63.28752133586832 108.13736330981443, 158.55301627159076 -0.23753659904654273 M-1.1459177339173026 188.41356601087222 C52.45583144071103 127.18840177608193, 106.06908306854338 66.06909971742652, 164.22040135696918 1.4689065616379113 M-0.8503763413002096 189.3062602305697 C33.75848971068688 150.8911518872318, 68.1417241385979 112.03156030536003, 165.24008475625033 0.21732766109943275 M-0.024579167913316796 194.3836490949009 C54.64702171728532 130.01986944488567, 110.91272897094755 66.95382604987705, 170.20324428507365 -0.873745267762283 M0.30876654687117644 195.22365945717684 C67.01488291017156 119.49821937772448, 133.42416325263437 41.31496519016753, 169.20923376726478 -0.06374322002468696 M1.1482546292995013 198.82798909936483 C45.64842810844322 146.1020829745929, 91.10918673456848 96.04321550688654, 175.30359182342247 -0.3211931744240485 M1.7949317559254003 198.27178845814632 C47.32773306367327 147.15435122060882, 91.6198531309908 95.59058960625393, 174.53913007513344 -0.5672640331863522 M6.1316661229049085 199.74928736571394 C60.810149638696515 133.41652595766612, 118.69190997284434 72.67799860252934, 180.21299167170469 1.0017688966476817 M6.435126188357011 199.01446600415719 C54.11279503222898 145.0904482689605, 100.99461075425131 90.38572292515833, 179.36325813836874 0.2355364372820597 M12.016618538495532 197.68826079851848 C52.28601466454378 153.55337922521204, 94.9535291897204 104.63298754869007, 187.2327640972944 -1.0312926047411795 M12.0079269451153 198.58472074129614 C79.94834810185685 121.86142261769152, 146.40737902235344 44.84130110161528, 185.87363606975396 -0.1029524093977724 M17.027235523021975 198.1429985134486 C67.31498822733518 142.229030372139, 113.94576270436696 86.59487598074088, 190.61743992370472 -0.5721215144830479 M17.024825127862783 199.19903618403708 C82.55567494180897 123.7167013334463, 148.38026300157063 47.951918706555006, 190.12903622017038 0.5330411795291967 M23.062029288094365 201.0011691618561 C58.06198488227426 157.1820207057369, 94.13623045303189 117.6283687475768, 196.39028424549448 -0.8111551416559473 M22.82157964177566 199.58141171170064 C86.80603351868352 126.88853132019706, 148.81284156665495 54.97706584191315, 196.6762584774059 -1.0278225469000295 M29.2696189548834 199.34677359438024 C71.09787208386732 149.71191545856436, 114.9629945003299 97.03239418625651, 199.94038669123813 1.2764569894191953 M28.271771203205315 199.75449074170322 C77.74048099372065 143.06530818251076, 125.80725258920633 85.40199387984788, 202.0503909818517 0.07403959770713409 M31.95465379161974 200.43779773340862 C95.67870924613672 129.07248345970177, 156.59518465896267 59.55056864443214, 205.84903748376107 -0.9110118771102358 M32.42376520142859 199.48966861613317 C81.8561642185948 143.11266741764757, 131.13853715123483 84.9763352504383, 206.21517544410227 -1.0415602477531065 M37.40101363919236 197.9477427690558 C78.27845834369204 152.23107345194126, 114.83791192216856 106.5105394060536, 211.82217480750813 1.1594251564012585 M38.944569450908105 198.72043650000722 C102.4321214637422 126.68283875787351, 167.21588363531265 51.96289398962969, 211.92507575368626 0.6539125209174057 M42.66168057517442 199.88893359915065 C93.73612218795871 142.26178551182596, 142.43371438470177 87.15873568730727, 219.01584786924445 -0.5460433105625571 M44.38548787302 199.76822390276791 C108.38776780689405 125.7816756848896, 174.68051394758163 49.96822801789978, 217.14515590164336 -0.8390353828102708 M49.001899333055405 200.08886132983804 C100.93888420018625 143.9614188670083, 151.89149327636207 85.50780323311987, 221.0040225822937 1.9926390895632609 M49.62256856827505 199.06895061731 C94.37722059413117 147.75705132473675, 137.69949835508396 97.95392130416523, 221.0138872850076 1.785528593096184 M55.42375937678553 199.7694250657425 C92.10075902618028 154.78878878541082, 135.2764777524713 107.51034173412563, 220.39433518704038 7.4821767227619205 M54.449246878183445 198.90340504450637 C120.99654218719296 124.64457180041725, 186.89550273786523 48.13610484359529, 221.02044744227706 6.593249253156527 M59.287099118055025 198.021933944076 C105.53317667252598 146.1239017144726, 149.22317299674305 95.80780723630544, 220.7543519936376 14.719192665349421 M59.4990246958653 199.18739162385134 C115.54361471940757 132.08021872614034, 173.19664999318894 66.66639201740378, 221.8821162521582 13.059166911623251 M66.04520621089814 201.00097501300093 C114.47370792479309 145.34732020756027, 162.5108557443202 89.34663190430474, 223.19558840052156 18.61171446716732 M65.73634660056611 199.57167987564995 C125.77471932234964 130.13707131412878, 187.11079935986473 60.189017678198944, 222.03452826161904 19.523480702778464 M70.23346925904526 198.90209898059481 C124.58394151561241 138.2286385065041, 176.70065193730082 77.21135525845231, 220.15505175774948 24.53235830257661 M71.2870154896253 199.22715530985278 C120.00306565021414 142.54228662668052, 170.29340606362564 84.19157088320574, 221.94657457224608 25.48239686737412 M75.31357987023956 198.23271198138465 C130.46760819423451 137.9502286259044, 186.43519282800636 75.25718094741028, 222.2690955900383 32.9634914045385 M75.93125493875787 198.9451860287286 C127.26636682543975 138.95118751011225, 179.68844603467912 78.69915136325068, 222.02660466952184 32.36532235440714 M80.91477237545966 199.01024071839845 C108.88785516808593 167.0333989268741, 139.8024778010874 134.38630456390308, 221.22583492843788 37.69179319587374 M81.29002116874447 199.53385576940616 C118.5123665324142 156.38827212239084, 155.08645920194525 112.47307362112397, 222.08118607227323 38.4126548716281 M86.29343980352868 200.16273227758214 C136.3779262706318 142.52081801700547, 185.52380266744848 86.4385018778621, 220.44571290606822 45.02985207698145 M87.11669119431521 200.24729053377987 C116.44193976470301 167.88747901708763, 145.44887441125107 134.49402423414958, 220.91291249620687 43.520433260579914 M90.54914909241764 200.16707749410335 C121.57253319370986 165.67201513131772, 151.48204542106117 129.49949090968533, 221.14864244987052 51.051534865098546 M90.91857780715493 198.8605665781236 C123.80691507255946 163.33628135818657, 154.48628222874243 127.37970353849055, 222.7156171102522 50.4853661489212 M97.38104400829874 198.70591643010414 C125.31995467877736 166.89108092746432, 152.65904847931242 133.33448840151752, 223.01218216873968 57.15744268531316 M97.35805523255371 199.0147224415574 C144.04511901668462 143.68670428760993, 192.18968333885192 87.46858735757274, 222.3043140304115 55.65453744503074 M102.95908202909808 198.93847489354818 C147.01773497860913 145.13141201107788, 195.0217268709802 89.85966676971083, 222.42320342447408 61.744616527256284 M102.41285262749474 199.8990300986698 C147.09478707482572 146.4197566703657, 193.51171998621209 93.67310697042143, 220.7417372231538 61.6896125955104 M108.97639412027218 200.74978239644352 C149.73333822995355 150.5419387089196, 190.12345995119784 105.01203939682468, 221.41410801950173 69.50036341226769 M107.4098289847783 199.08412697162512 C133.3707740106826 169.10842634231386, 158.20232482901972 140.73547664582708, 221.54362589325086 67.45764715685618 M114.27769111323946 198.4161863799071 C153.2592907234055 153.63765809639452, 190.62989877747117 108.29262873511665, 219.95146441927906 73.41127535235535 M112.19265753816657 199.7604840366965 C138.86271026086874 170.01453011468888, 164.04640904627638 141.05949192180944, 220.4626202835029 75.41599730123232 M119.9857914734565 198.26802885594697 C157.56525297420274 156.52552200552694, 193.38861020487303 110.86765446890466, 222.90342095522465 81.10526228863624 M117.68585353045988 199.9635824660483 C140.12092962756404 174.48416484746102, 162.6019903517027 146.9767771011571, 221.8931748776722 79.51685275491205 M125.1250935323418 200.2769697656801 C154.51470342853153 164.4409054552123, 187.2911788969819 125.93034917691746, 221.16623359279498 88.51422873311847 M122.95574644542046 199.7237369859537 C157.8035367933498 158.89692500065306, 192.00108740346514 120.21679923263551, 221.43558616855904 86.43241344005972 M127.7481032553518 199.71866362111447 C154.32991226259833 169.30918818091695, 181.55244089649045 139.16810459390575, 222.63167913441805 94.21610670714168 M127.77450777584852 200.29127251857696 C162.8684916520293 161.60457629796807, 195.5930181509642 123.85963607564123, 220.30090586093513 93.45942241317121 M131.90284744491456 201.5147924435899 C154.08694820284316 178.35824939609634, 173.2733338095535 158.0561316898461, 220.59387813252187 97.32398448204563 M133.02506422651587 200.0410571204141 C161.6230499323264 167.7105076669866, 190.7199136036582 133.59665137580373, 221.15526378457224 97.97079460574255 M140.03969665345804 198.12219450444604 C171.0480790728153 163.695194963975, 202.95692977704002 130.1104170566623, 222.1561178025629 103.37523531983837 M138.5454206271942 199.92413072296108 C168.0563429823882 165.30901058053598, 198.0288940979755 132.66203453665838, 221.9641908072706 104.86724556493803 M145.41818809643877 199.421993065691 C167.18276366815763 174.83571236936737, 190.60072333714416 148.54119163849413, 223.19826522595966 110.67355041163688 M144.97298284568382 198.91933387338221 C172.41304705947582 166.78401929226493, 199.50156296349775 136.0582801149257, 222.39753203779244 110.48182439203089 M151.0744388552752 199.06162931844167 C174.83381950222264 169.3433875477738, 199.21775458208518 141.51120933478998, 221.50329511816864 115.95161551944915 M150.1494709907469 199.93784067295067 C168.88305828301776 177.1908840178373, 186.8682700006091 156.9014699970076, 222.39347459393804 117.80509038418535 M154.9476736454239 200.11753902470616 C176.7670228440787 172.9272892962424, 197.136413668937 147.0875025134821, 219.72470303161788 124.71314391461493 M155.68494718018377 199.0483354188308 C173.24462567461606 178.65433183587353, 190.26958548148744 158.03892525732763, 220.56346080547917 124.38964597289743 M161.5036970483033 200.6824758756014 C181.1960079617546 179.02312654786573, 197.52451902179206 155.2261951483325, 221.79332826873537 129.122005118474 M160.01878777275664 198.62683596229576 C175.71220577095784 182.29607385580445, 191.0524922782945 165.8554013919399, 222.03651112718757 129.80176546466313 M166.86142127936995 199.5281881331354 C180.12120808412112 182.94527147815083, 195.85985720542655 165.32940161751975, 221.32417679497757 133.8913536430343 M164.98371113626575 200.58187035050983 C184.62670186851793 178.9150551377556, 202.69162908837603 158.01880978903495, 222.30354705186346 135.0730237816467 M170.41633842004234 197.69274198842513 C183.158116220366 189.181599684045, 190.60501478299295 174.8669351202727, 219.92777541277252 143.38037150963564 M170.8667498794734 199.50430018474626 C189.03293283256602 177.6213603215839, 209.57467785130055 156.49115027774798, 220.9662452842786 141.35953898034413 M175.96704818577697 200.14319820347868 C190.06871276512322 184.90371889765078, 201.2213933792496 169.97806736007692, 219.61699467454818 147.48339698961775 M176.9732786201798 199.89249726216934 C193.16993416612752 179.3428759686565, 211.2045845578956 158.2540460541846, 221.58136065420476 147.39360099225144 M183.33873015799233 197.36293546941297 C189.18257355664105 189.0955277014797, 200.19253813112303 177.5687325701852, 223.2138717957611 155.5190533449886 M182.6879862171472 199.30216693405228 C191.7819076983553 186.04403557482644, 202.95406482040687 173.87423575835072, 221.50504902944218 154.93530036453285 M185.5096715521449 199.01432704823603 C193.08557273779957 190.46444743154296, 201.02618627722163 179.64461284349994, 221.31702385782972 158.57228176686522 M186.03890353817584 199.57152474755932 C199.8898867975335 185.11708389352535, 212.0369769085372 170.05625845364597, 222.2977805187531 158.67706119846162 M192.23473944965323 199.52606413106486 C204.204253198611 186.43844984073317, 217.44877315704537 171.86917938012954, 221.4281755762106 167.15701801725564 M192.758375692028 199.97111980396375 C199.9645403009873 190.495574307872, 208.6303164746864 181.73134703498732, 222.28836723993777 165.46881779120204 M199.1719085659738 199.75583247990744 C206.01056413836287 189.61145359325695, 213.76984055983874 179.57725078933925, 222.9195725033317 173.55822536749955 M196.84708979650395 200.42901140042977 C205.0197959329797 190.12497030826688, 213.2698805417984 181.36141460154133, 220.97887652276793 172.22254757425006 M203.5057334825251 200.5776357858808 C210.52212392383507 192.2405325903991, 213.9585803030753 183.64710884273546, 221.44080394162106 177.7210233389367 M203.63504721036588 198.68059238823068 C206.31747216065222 194.64873625834736, 211.31771414326658 189.3638371123693, 220.8889538220154 177.36389985410167 M209.07387641476362 200.54447231099292 C213.4840757059872 196.0928694348929, 214.77406660725123 192.91788990181942, 221.32562585653514 185.13981644357514 M208.34559130141406 199.4937658145307 C211.04574323398862 195.0674018857681, 215.64828644066225 191.49875304422662, 221.40014563048035 184.28382455292117 M213.92019052052248 198.13192785479882 C215.54094874670432 196.13600717950695, 219.52945073001825 195.05551275624106, 222.21055064090766 189.54412319543215 M213.41967066110422 199.5377938753442 C215.49560053193724 196.05721331235804, 217.52739909894754 194.33215378908295, 221.37141380236724 189.5697900101021" stroke="#fab005" stroke-width="0.5" fill="none"></path><path d="M1.6081878883030487 -1.1279317235261275 C56.85804887717416 0.23764862893842542, 114.88129097762517 -1.4596478676929583, 221.46949567033056 1.438478525105111 M-0.2748709349646009 -0.06712167625248058 C43.80573963100618 -0.4187839504320665, 88.1598606657842 -1.241519968346004, 219.73586791310976 0.05828971910238638 M220.41205200180414 -1.8378209136426449 C217.17024838689719 71.69094993062316, 217.23196363214407 147.7662028610706, 219.9068901203573 199.49299976602194 M219.57549737580123 0.8338272999972105 C217.9186213355139 64.5989254206419, 217.55977127362044 129.80547366030515, 219.1985931862146 197.2916917633265 M220.76311529574565 198.7568889367574 C168.7594204544113 195.50084479217875, 120.35237050834824 195.76429429000842, 1.1470757723684384 197.25951199689683 M220.7809966916326 198.73830179555043 C160.7544730540716 199.37938311507085, 100.22590773956591 198.9537228400387, -0.7201964126933253 197.71569488048814 M0.6648336313664913 198.18421969190237 C-0.430901484824717 128.68557768426834, -1.3827589324489236 61.33424784094095, -0.5294838286936283 1.2861051298677921 M-0.337863577529788 198.9872490596026 C0.36968867268413286 122.36807426735757, 0.4799662658199666 48.528606430068606, 0.9543339479714632 0.6540025305002928" stroke="#000000" stroke-width="1" fill="none"></path></g><g transform="translate(51 81) rotate(0 70 70)"><path d="M18.339744729602618 23.892574828471464 C18.339744729602618 23.892574828471464, 18.339744729602618 23.892574828471464, 18.339744729602618 23.892574828471464 M18.339744729602618 23.892574828471464 C18.339744729602618 23.892574828471464, 18.339744729602618 23.892574828471464, 18.339744729602618 23.892574828471464 M10.458257200916993 41.7294896848456 C15.71574851893406 33.95409202958989, 20.92697422865175 26.47552525616299, 33.99665400338482 11.237818331425743 M9.109958612149345 40.00831128172139 C15.846301039330502 33.04735646881366, 22.502585596950105 23.6329109435159, 34.08939730142366 12.049557964285569 M5.451616771602325 52.41024837169592 C19.264027732518546 33.402897779668606, 37.78220545925715 14.269982698581437, 45.612959414129435 7.014870975986167 M4.854207424530081 52.86365584742074 C14.950845410239264 40.222621414293016, 26.39711660005773 27.03694267983224, 45.42218910657364 6.341354950219436 M4.2659013555239405 61.30163512027785 C19.67390141373898 43.41749668973627, 31.817261444490313 21.96316881094031, 51.43975742217124 5.760675639236741 M3.0594321382086243 59.82604609264955 C18.335103453841548 40.69725292338746, 35.03471591247278 22.915883086529085, 51.908686018176084 5.412933389047556 M0.9934433021762956 67.65908026349051 C22.422049300706338 44.3841316750398, 44.442212677149676 17.230135512862724, 57.56318247489078 2.9905539414033306 M2.4790368800231803 66.74667651046319 C14.613744141028093 50.41415727598426, 27.426364845634033 36.72112652195037, 57.520703635955286 2.4945196861520422 M3.2842138560063887 72.6246224831192 C21.587689137154307 48.714361328812174, 44.381905036628815 23.331394880757223, 60.473240537744545 2.542660394493982 M3.164299046764498 72.21686556780321 C18.91642709369882 52.72908521016484, 35.31753260049922 34.37098511161424, 61.311663452711485 4.055188763697192 M3.440528011461211 78.62545671094918 C25.479753946155853 50.890167123719905, 50.41734347048176 20.658594951944416, 65.96757647114154 2.3917578594028726 M0.996574160223318 80.52910360661113 C18.807438402197207 58.71105701706499, 36.98972568844327 40.506113878463474, 67.75786023119744 3.1791395177334323 M3.416280628949778 85.98009580787462 C31.87530789024329 50.88461096155321, 58.25647923560845 19.991348283116174, 73.62194276952879 1.0666037679152751 M2.124031983152406 85.84571452293736 C25.090708765267358 57.88009624471731, 49.763465877084954 32.3570183971381, 72.66643074320392 3.5455810402022863 M4.5995332319095965 89.80633762545804 C19.869029460437584 69.41891485564962, 38.44601443253057 50.17893505388199, 77.78943567735324 2.2561118018164805 M4.181743316333019 88.66932282850067 C28.19329123972476 60.403496171515954, 52.35170044077421 33.98964625742516, 77.61208988552163 3.5973942980452946 M7.499632064787647 94.13684584548469 C26.29916421385853 71.54679303976722, 46.25773536836457 45.428449523982714, 83.94367227603345 4.170223152223407 M5.416298056555888 93.52093449024255 C31.64017202003852 63.51059104860777, 55.292298521093066 34.50594122479565, 83.71780776691287 3.464503392535626 M6.122208093040435 95.54414997996263 C36.803045840460186 63.77586931904288, 68.72372966085095 29.877573370284082, 91.11743631001639 3.6931640009213638 M8.498305196621267 96.12743693032733 C32.287126835445534 68.86553417122165, 56.916636109770025 38.727998941981106, 89.53095553416836 2.6796330406148385 M8.968413119095956 99.7468070502316 C33.120884130323184 71.5778003514734, 59.39764050012502 44.11997082963817, 94.93373721576803 3.253735940141155 M8.959128941300904 101.590260705251 C37.31197109721228 69.16914833154229, 64.57079146327426 36.33244835315001, 93.49186440109783 4.611098994669987 M10.785683666391712 104.25323990785407 C36.114799420906856 78.076051820857, 61.35426519067509 48.09626614774831, 95.22928235369741 4.412639330776955 M10.379152591376048 104.59171782673226 C28.107462379966904 85.18031011609656, 45.321953426861306 63.244109539609155, 96.99479788045406 5.612631400751496 M12.254859037355708 108.4773180741698 C47.55297796524197 68.41898579277168, 80.83763700342968 29.44282278462714, 99.86888671825153 7.034569104614043 M13.512396601618455 109.07308260126715 C34.0938938711396 85.78716338718715, 54.2864177366919 60.39293642370553, 99.6398614940278 9.757970600800896 M15.740945197444432 112.38219606118679 C44.4524112329789 81.71923969748588, 71.10009170154001 48.717162975728435, 103.7128861408489 11.630247702769374 M15.474782464828365 112.44092995101988 C45.58806181955048 76.29511182454425, 74.85431824137176 41.569643632774415, 103.63791597558131 10.745400071091389 M16.260527978076396 114.82234631002206 C49.40954463193753 81.97727490546089, 81.39258885949937 47.23244039997341, 107.05578311593648 11.509682557028235 M18.14904591476804 115.47166835226375 C50.20780211713355 78.94390789472266, 82.91991523602121 42.53440337434719, 107.68672309690531 13.613503903564514 M19.920418902689093 117.69681667223804 C53.22335472806634 80.40437770553373, 88.96321078406307 41.030619321990926, 111.96942388796128 14.14303734917587 M20.060882752218717 118.02729731671744 C54.71146177172446 82.20273711120146, 86.61133609204998 43.92710837472059, 110.75162275479056 15.664538065161764 M22.948714215729538 120.81952082962006 C48.09686993480954 94.43772792592974, 69.45106007527596 65.71408149939853, 114.64617553834185 18.521503270329248 M22.847507873971168 121.48819781132251 C44.00840096558906 99.58459879788242, 63.582191704188745 76.07384063438866, 113.84621005799934 17.38780165715636 M28.03797196962573 123.28010955350781 C49.45718256428687 97.71149372347402, 71.50844518487905 72.6821368811183, 119.83757181152515 19.31055650227364 M27.03833235979714 123.67650351757491 C49.85134039122717 98.7527291531608, 70.28261381507109 74.1047465637451, 117.90848115332238 18.17539439648982 M31.439916879834144 126.84251860590936 C51.52297608472831 101.26993635997516, 74.12705930528593 76.74166191190378, 120.54143117296766 20.965539057017104 M30.587168327496855 125.81714873263897 C63.15022651544511 88.26868176804268, 98.1507181375576 50.57166082128316, 120.92545128355991 22.000297455326454 M33.27679449878278 127.04171125816441 C62.466467476200805 96.39000598559454, 91.6866529270843 63.94747146756551, 123.6571519540879 25.583110875676567 M32.621083106842065 129.19711088801063 C56.730966735533784 103.94108059751616, 79.03230588526128 77.53282037747206, 123.02594993247418 24.83032555993944 M37.29213509990916 131.8275166118355 C59.38452427324273 107.33253206426949, 79.31431669654324 83.62097506459969, 124.42435817832339 29.054507309814554 M36.62866312361405 131.37174887040868 C70.78169059706514 91.29871486848855, 104.64008522612644 51.9742096547991, 124.35676665084648 28.34388447204755 M38.53787173564128 131.68021043826232 C58.40554040230958 109.963353229223, 80.6952093762032 86.78619737162771, 126.1100176191116 31.181119960993563 M39.58463195758454 133.84288386132906 C59.89089486222965 111.22432085633392, 79.45281667621447 88.86513555166496, 128.20726911445803 31.608051828369533 M43.12510412143562 134.25435349945292 C76.29237880244766 95.14579348087017, 110.63040025127172 56.884398666122095, 130.38344179989002 35.29949668077607 M43.138114226553775 136.26513765793607 C67.31514834090956 107.8815442298787, 89.82134946799545 79.85153911462658, 128.82190312409006 36.26607714062412 M47.84757086770122 137.9661149063015 C68.26372698264107 113.82342573500833, 88.34825528288277 92.85675373366512, 131.69128599409623 39.906341570724614 M46.67360781827455 137.59575603128016 C70.70352929646305 110.68920727276208, 94.16272765287704 83.95186314229124, 131.2126926055239 39.72488179553009 M52.65211821888506 138.41065834059333 C79.14612691362052 107.93885172992346, 102.40696994454703 77.59930510873474, 135.63254922516765 42.28351498240167 M53.218952629537576 136.07449494830286 C72.41837865056702 114.09331761678459, 91.42779721650379 90.12328409749831, 134.97173960954072 42.34255905480617 M56.98187714044363 137.7230133143364 C87.27025435825345 103.46736725071678, 121.515790454742 63.69081269714496, 137.3335742665418 46.12303351736973 M57.226007653143114 138.1469918311684 C77.47327699587376 115.65461684264724, 97.19912081384894 91.0748519927923, 136.0837243119218 46.61587405517111 M61.431558463795426 140.42952726864777 C79.45286883694767 119.68884160235154, 93.71947608192835 100.20661776050129, 137.85487055468465 51.416198767859626 M61.6634461228534 137.8787176561501 C86.66095568971956 109.15405870962422, 112.54129511570227 79.89525095470835, 136.77022792647685 52.631892549011994 M65.53003968338747 138.35583263531265 C84.88586778643531 120.78454108874075, 102.02212159110715 97.29773932992444, 137.12670447899578 58.53150151454276 M67.23684231045921 139.42544401518938 C93.72527421307512 109.8442244902662, 118.92369581715515 79.8916603949506, 137.8628229949492 55.70838510215646 M72.08354204366674 139.9877180961163 C94.19023139993982 110.79679334690137, 120.42981556987831 85.45588901987873, 139.7953320049316 61.65084626942719 M70.16934861275126 139.95661437522782 C85.3879641875879 123.504604855882, 100.23960887353405 106.45084714098431, 138.08680601013901 61.39255163676883 M75.51880762605175 139.83199984217572 C95.98719381970058 115.72395259555945, 117.91293610038096 94.48971026409535, 139.50252993492018 69.60216505385264 M75.98237263849184 140.5787153375386 C93.49718031359993 119.24399825534101, 111.17440552943822 100.47638935355015, 139.77822867681812 67.85613520934507 M82.28992226196101 140.3056503146078 C105.27267347837662 114.39091578917322, 126.65888407834615 87.12202821940421, 139.29241882138948 71.74854613915882 M83.33990012144318 137.7869053783949 C103.57898402030685 113.61153835674793, 125.00268068104526 90.49474108997612, 140.7282208247582 73.34705075138113 M89.97302038786052 135.13434610564343 C109.21640915075913 114.17418940034398, 126.00598542744879 94.48420068886895, 139.3622268508055 80.63207236757657 M90.58069977541504 136.42606275018386 C100.9686341833048 123.42467221102251, 111.5418362372206 111.37216629305159, 139.37125429276907 78.39572339026412 M98.88975727718775 134.93979131684506 C106.76573981252491 121.23285697993391, 119.75469736514535 109.1652327389316, 138.06152595963425 88.57998283133671 M96.77929552618866 134.84060883962417 C107.04018429127663 122.07828963325201, 119.10752927049177 109.8267146934109, 137.2218790446604 89.9837501283811 M105.82625001136122 131.61942713932964 C115.83367164013013 117.85008781898858, 125.58577365543275 105.79227167289227, 131.5157040662657 101.29199623088783 M104.90240748252629 130.81671774798903 C115.23019494712376 120.30685078747365, 124.1736958762277 109.83377700911188, 131.93569540116596 98.69372320133692" stroke="#fab005" stroke-width="0.5" fill="none"></path><path d="M55.342100380032406 2.3795036057418884 C64.95094950958268 -0.8656574310460527, 78.61409422885932 -1.2894079508624032, 88.90649396038904 1.389890132586146 C99.19889369191877 4.069188216034695, 109.41508280672377 11.23080685313348, 117.09649876921078 18.455292106433184 C124.77791473169779 25.67977735973289, 131.34262783402306 34.837567133173096, 134.9949897353111 44.736801652384365 C138.64735163659913 54.636036171595634, 140.14439869295884 67.35624594803632, 139.0106701769389 77.8506992217008 C137.87694166091896 88.34515249536527, 133.88236027359915 98.91422070325679, 128.19261863919138 107.70352129437123 C122.50287700478363 116.49282188548567, 113.8063224584989 125.33774039328445, 104.87222037049236 130.58650276838745 C95.93811828248582 135.83526514349046, 85.16588687057086 138.58328798617327, 74.58800611115214 139.19609554498922 C64.01012535173342 139.80890310380516, 51.35770131977309 138.53602579120377, 41.404935813980046 134.26334812128306 C31.452170308187 129.99067045136235, 21.616213458242214 121.90642418988106, 14.871413076393878 113.56002952546496 C8.126612694545543 105.21363486104885, 2.888767512087493 94.41319005011448, 0.9361335228900316 84.18498013478643 C-1.0165004663074295 73.95677021945838, 0.2349698304371337 62.26255469258898, 3.155609141209112 52.190770033496605 C6.07624845198109 42.11898537440423, 11.715374600359567 31.753736142655768, 18.4599693875219 23.75427218023217 C25.204564174684236 15.754808217808574, 36.84662532161629 7.883168547154126, 43.62317786418312 4.193986258955022 C50.39973040674995 0.5048039707559169, 55.807827344373756 2.1480943956162597, 59.11928464292289 1.6191784510375413 C62.43074194147203 1.090262506458823, 63.3604429886544 0.12426735028946945, 63.49192165547795 1.0204905914827123" stroke="#000000" stroke-width="1.5" fill="none" stroke-dasharray="12 8"></path></g><g transform="translate(70 125) rotate(0 51 26)"><text x="51" y="18" font-family="Virgil" font-size="20px" fill="#000000" text-anchor="middle" style="white-space: pre;" direction="ltr">git</text><text x="51" y="44" font-family="Virgil" font-size="20px" fill="#000000" text-anchor="middle" style="white-space: pre;" direction="ltr">repository</text></g><g><g transform="translate(191 148) rotate(0 218.2794463393604 -0.7436547335988024)"><path d="M-0.10350496396422382 0.5118844829499722 C73.0988337871929 0.6057415885229906, 365.19953336293503 -0.1250377652545771, 438.1758764781058 -0.2665253557264806 M-1.616983799384907 -0.26498010884039114 C71.62106150731755 -0.4399802746406447, 364.67816950952323 -1.6596058037908128, 437.8451661654841 -2.0040259162615985" stroke="#000000" stroke-width="1" fill="none"></path></g><g transform="translate(191 148) rotate(0 218.2794463393604 -0.7436547335988024)"><path d="M410.55255488808496 10.339247386177636 C417.00241426649654 7.444581883464248, 422.89364020006576 4.121918649579419, 438.8231454418134 -1.9663782256376 M410.6704541960661 7.456742943470932 C419.8944157104425 4.357268585517784, 430.3967950615763 0.8991916511533233, 438.0863208790403 -1.224847846357152" stroke="#000000" stroke-width="1" fill="none"></path></g><g transform="translate(191 148) rotate(0 218.2794463393604 -0.7436547335988024)"><path d="M410.46303823296944 -10.181765969753325 C416.79012802092797 -8.69538473164471, 422.7004645964327 -7.6370784365255515, 438.8231454418134 -1.9663782256376 M410.5809375409506 -13.06427041246003 C419.6734712973681 -8.681823950916934, 430.2084869623326 -4.658273794295596, 438.0863208790403 -1.224847846357152" stroke="#000000" stroke-width="1" fill="none"></path></g></g><g transform="translate(265 111) rotate(0 129 12.5)"><text x="0" y="19" font-family="Cascadia" font-size="20px" fill="#000000" text-anchor="start" style="white-space: pre;" direction="ltr">git push origin master</text></g></svg>